<?xml version="1.0" encoding="utf-8"?>
<!-- Generator: Adobe Illustrator 16.0.0, SVG Export Plug-In . SVG Version: 6.00 Build 0)  -->
<!DOCTYPE svg PUBLIC "-//W3C//DTD SVG 1.1//EN" "http://www.w3.org/Graphics/SVG/1.1/DTD/svg11.dtd">
<svg version="1.1" id="Layer_1" xmlns="http://www.w3.org/2000/svg" xmlns:xlink="http://www.w3.org/1999/xlink" x="0px" y="0px"
	 width="110px" height="110px" viewBox="0 0 110 110" enable-background="new 0 0 110 110" xml:space="preserve">
<path fill="none" stroke="#FFFFFF" stroke-width="2" stroke-miterlimit="10" d="M66.7,25.1v0.1l-25.5,0.1l0.8-1.3l1.4-1.3l20.5-0.1
	l5.8-17.3L38.8,5.5l4.4,16.9c-3.2-3.2-11.1-9.9-18.2-7.5l0.8,1.9c6.1-2,13.5,4.8,16.1,7.4c-4.3,1.4-10,2.4-13.3-0.2l-1.5,1.5
	c2,1.6,4.5,2.1,7.1,2.1c1.6,0,3.2-0.2,4.7-0.5C24.5,35.7,14.3,55.2,14.4,70c0.1,19.6,18.2,35.4,40.4,35.3
	c22.2-0.1,40.1-16.1,40-35.7C94.8,53.8,82.9,32.7,66.7,25.1L66.7,25.1z M66.2,81.4c-2.1,1.7-4.8,2.7-7.9,3.2l0,5.6l-6.9,0l0-5.6
	c-3.1-0.5-5.9-1.6-8.3-3.4c-2.9-2.2-4.4-4.7-4.5-7.6l0.1-1.5l6.7,0l0,0.6c0,2.3,0.9,4.1,2.5,5.3c1.6,1.3,3.9,1.9,6.8,1.9
	c3,0,5.3-0.7,6.9-1.9c1.6-1.3,2.4-3,2.4-5.2c0-1.9-0.7-3.3-2.3-4.4c-1.6-1.1-4.4-2.1-8.3-2.9c-4.3-0.9-7.7-2.3-9.8-4.1
	c-2.2-1.9-3.4-4.2-3.4-7c0-3.2,1.4-5.9,4.2-7.9c1.9-1.4,4.2-2.3,6.8-2.8l0-4.9l6.9,0l0,4.8c3.1,0.4,5.6,1.3,7.7,2.8
	c2.7,2,4.2,4.8,4.4,8.2l0,0.6l-6.7,0l-0.1-0.5c-0.3-2.2-1.1-3.8-2.5-4.8c-1.3-1-3.2-1.5-5.7-1.5c-2.6,0-4.7,0.6-6.1,1.6
	c-1.4,1-2.1,2.4-2.1,4.4c0,1.6,0.7,2.9,2,3.9c1.3,1,3.7,1.9,7,2.5c4.9,1,8.6,2.5,11.1,4.4c2.5,2,3.7,4.5,3.7,7.5
	C70.8,76.2,69.2,79.2,66.2,81.4L66.2,81.4z M66.2,81.4"/>
</svg>
