<?xml version="1.0" encoding="utf-8"?>
<!-- Generator: Adobe Illustrator 16.0.0, SVG Export Plug-In . SVG Version: 6.00 Build 0)  -->
<!DOCTYPE svg PUBLIC "-//W3C//DTD SVG 1.1//EN" "http://www.w3.org/Graphics/SVG/1.1/DTD/svg11.dtd">
<svg version="1.1" id="Layer_1" xmlns="http://www.w3.org/2000/svg" xmlns:xlink="http://www.w3.org/1999/xlink" x="0px" y="0px"
	 width="256.1px" height="256px" viewBox="0 0 256.1 256" enable-background="new 0 0 256.1 256" xml:space="preserve">
<circle opacity="0.7" fill="#0073C6" cx="128.1" cy="127.9" r="128"/>
<g>
	<g>
		<defs>
			<rect id="SVGID_1_" x="59.1" y="41.3" width="144" height="173.2"/>
		</defs>
		<clipPath id="SVGID_2_">
			<use xlink:href="#SVGID_1_"  overflow="visible"/>
		</clipPath>
		<path clip-path="url(#SVGID_2_)" fill="none" stroke="#FFFFFF" stroke-width="2" stroke-miterlimit="10" d="M149.6,75.4v0.2
			l-44.2,0.2l1.4-2.2l2.5-2.3l35.5-0.1l10-30l-53.4,0.2l7.7,29.2c-5.5-5.5-19.2-17.1-31.5-13.1l1.3,3.3c10.5-3.4,23.4,8.2,27.9,12.8
			c-7.5,2.4-17.3,4.2-23.1-0.4l-2.6,2.6c3.4,2.7,7.8,3.6,12.4,3.6c2.7,0,5.5-0.4,8.1-0.9c-25.1,15.2-42.6,49-42.5,74.6
			c0.2,34,31.6,61.3,70,61.1c38.5-0.1,69.5-27.8,69.3-61.8C198.3,125.2,177.7,88.5,149.6,75.4L149.6,75.4z M148.7,173
			c-3.7,2.9-8.3,4.7-13.7,5.6l0.1,9.8l-11.9,0l-0.1-9.8c-5.4-0.8-10.2-2.8-14.4-5.8c-5-3.8-7.6-8.2-7.8-13.1l0.2-2.7l11.6,0l0,1
			c0.1,4.1,1.5,7.1,4.3,9.2c2.7,2.2,6.8,3.2,11.8,3.2c5.1,0,9.1-1.2,11.9-3.4c2.8-2.2,4.1-5.2,4.1-9.1c0-3.2-1.3-5.7-4-7.6
			c-2.8-1.9-7.6-3.6-14.3-5c-7.5-1.5-13.3-3.9-17-7c-3.8-3.2-5.9-7.3-5.9-12.2c0-5.6,2.4-10.2,7.3-13.8c3.3-2.4,7.3-4,11.7-4.8
			l-0.1-8.5l11.9-0.1l0,8.2c5.3,0.6,9.8,2.3,13.3,4.8c4.7,3.5,7.3,8.2,7.6,14.2l0,1.1l-11.6,0.1l-0.2-0.8c-0.6-3.7-2-6.6-4.3-8.3
			c-2.3-1.8-5.6-2.7-9.9-2.6c-4.5,0-8.1,1-10.6,2.8c-2.5,1.8-3.6,4.2-3.6,7.5c0,2.8,1.1,5.1,3.4,6.7c2.3,1.7,6.4,3.2,12.2,4.4
			c8.4,1.8,14.9,4.3,19.2,7.7c4.2,3.4,6.5,7.7,6.5,12.9C156.6,163.9,154,169,148.7,173L148.7,173z M148.7,173"/>
	</g>
</g>
</svg>
