<?xml version="1.0" encoding="utf-8"?>
<!-- Generator: Adobe Illustrator 16.0.0, SVG Export Plug-In . SVG Version: 6.00 Build 0)  -->
<!DOCTYPE svg PUBLIC "-//W3C//DTD SVG 1.1//EN" "http://www.w3.org/Graphics/SVG/1.1/DTD/svg11.dtd">
<svg version="1.1" id="Layer_1" xmlns="http://www.w3.org/2000/svg" xmlns:xlink="http://www.w3.org/1999/xlink" x="0px" y="0px"
	 width="256.1px" height="256px" viewBox="0 0 256.1 256" enable-background="new 0 0 256.1 256" xml:space="preserve">
<circle opacity="0.7" fill="#0073C6" cx="128.7" cy="127.9" r="128"/>
<g>
	<path fill="none" stroke="#FFFFFF" stroke-width="2" stroke-miterlimit="10" d="M172.7,81.1c-27.4,16.8-41.9,49.9-50,59.3
		l-29.7-25.1c-0.6-0.4-8,6.8-7.7,7.1l37.5,38.2c0.3,0.3,0.7,0.4,1.1,0.4c0.1,0,0.2,0,0.3,0c0.5-0.1,0.9-0.5,1.1-0.9
		c6-15.4,26-47.8,51.5-71.3c0.4-0.4,0.6-1.1,0.4-1.7C177.2,87,173.1,80.8,172.7,81.1L172.7,81.1z M172.7,81.1"/>
	<path fill="none" stroke="#FFFFFF" stroke-width="2" stroke-miterlimit="10" d="M197.3,53.8c-56.8,0-66.4-21.6-66.5-21.8
		c-0.4-1.1-1.4-1.8-2.6-1.8h0c-1.1,0-2.2,0.7-2.6,1.7c-0.1,0.2-9.9,21.8-66.5,21.8c-1.6,0-2.8,1.3-2.8,2.8v96.7
		c0,39.6,68,69.8,70.8,71.1c0.4,0.2,0.8,0.2,1.2,0.2c0.3,0,0.8-0.1,1.1-0.2c2.9-1.3,70.8-31.5,70.8-71.1V56.6
		C200.2,55.1,198.9,53.8,197.3,53.8L197.3,53.8z M184.6,147.7"/>
</g>
</svg>
