<?xml version="1.0" encoding="utf-8"?>
<!-- Generator: Adobe Illustrator 16.0.0, SVG Export Plug-In . SVG Version: 6.00 Build 0)  -->
<!DOCTYPE svg PUBLIC "-//W3C//DTD SVG 1.1//EN" "http://www.w3.org/Graphics/SVG/1.1/DTD/svg11.dtd">
<svg version="1.1" id="Layer_1" xmlns="http://www.w3.org/2000/svg" xmlns:xlink="http://www.w3.org/1999/xlink" x="0px" y="0px"
	 width="110px" height="110px" viewBox="0 0 110 110" enable-background="new 0 0 110 110" xml:space="preserve">
<g>
	<path fill="none" stroke="#FFFFFF" stroke-width="2" stroke-miterlimit="10" d="M77.6,30.6c-14.1,8.6-21.6,25.6-25.7,30.5
		L36.7,48.1c-0.3-0.2-4.1,3.5-4,3.7L52,71.5c0.1,0.2,0.3,0.2,0.6,0.2c0,0,0.1,0,0.1,0c0.3,0,0.5-0.2,0.6-0.5
		c3.1-7.9,13.4-24.6,26.5-36.7c0.2-0.2,0.3-0.6,0.2-0.9C79.9,33.6,77.8,30.4,77.6,30.6L77.6,30.6z M77.6,30.6"/>
	<path fill="none" stroke="#FFFFFF" stroke-width="2" stroke-miterlimit="10" d="M90.3,16.5c-29.2,0-34.2-11.1-34.2-11.2
		c-0.2-0.6-0.7-0.9-1.3-0.9h0c-0.6,0-1.1,0.4-1.4,0.9c0,0.1-5.1,11.2-34.2,11.2c-0.8,0-1.5,0.7-1.5,1.5v49.7
		c0,20.4,35,35.9,36.5,36.6c0.2,0.1,0.4,0.1,0.6,0.1c0.2,0,0.4,0,0.6-0.1c1.5-0.6,36.5-16.2,36.5-36.6V18
		C91.8,17.2,91.1,16.5,90.3,16.5L90.3,16.5z M83.7,64.8"/>
</g>
</svg>
