<?xml version="1.0" encoding="utf-8"?>
<!-- Generator: Adobe Illustrator 16.0.0, SVG Export Plug-In . SVG Version: 6.00 Build 0)  -->
<!DOCTYPE svg PUBLIC "-//W3C//DTD SVG 1.1//EN" "http://www.w3.org/Graphics/SVG/1.1/DTD/svg11.dtd">
<svg version="1.1" id="Layer_1" xmlns="http://www.w3.org/2000/svg" xmlns:xlink="http://www.w3.org/1999/xlink" x="0px" y="0px"
	 width="256.1px" height="256px" viewBox="0 0 256.1 256" enable-background="new 0 0 256.1 256" xml:space="preserve">
<circle opacity="0.7" fill="#0073C6" cx="128.7" cy="127.9" r="128"/>
<g>
	<path fill="none" stroke="#FFFFFF" stroke-width="2" stroke-miterlimit="10" d="M206.2,86.1c0.5-0.2,0.7-0.7,0.5-1.1
		c-0.1-0.2-0.2-0.4-0.3-0.6c-0.1-0.2-0.2-0.5-0.4-0.8c-0.2-0.3-0.4-0.7-0.6-1.1c-0.2-0.4-0.4-0.8-0.7-1.3c-0.1-0.2-0.2-0.4-0.4-0.6
		c-0.1-0.2-0.3-0.4-0.4-0.7c-0.3-0.4-0.5-0.9-0.8-1.4c-0.3-0.5-0.6-1-0.9-1.5c-0.2-0.3-0.3-0.5-0.5-0.8c-0.2-0.3-0.3-0.5-0.5-0.8
		c-0.3-0.5-0.7-1-1.1-1.6c-0.8-1-1.5-2.1-2.4-3.2c-0.2-0.3-0.4-0.5-0.6-0.8l-0.3-0.4l-0.3-0.4c-0.4-0.5-0.9-1.1-1.3-1.6
		c-0.4-0.5-0.9-1-1.4-1.6c-0.2-0.3-0.5-0.5-0.7-0.8c-0.2-0.2-0.5-0.5-0.7-0.7c-0.2-0.2-0.5-0.5-0.7-0.7c-0.2-0.2-0.5-0.5-0.7-0.7
		c-0.5-0.5-0.9-0.9-1.4-1.4c-0.5-0.5-0.9-0.9-1.4-1.3c-0.5-0.4-0.9-0.8-1.3-1.2c-0.4-0.4-0.9-0.8-1.3-1.1c-0.4-0.4-0.8-0.7-1.2-1
		c-0.4-0.3-0.8-0.6-1.2-0.9c-0.4-0.3-0.7-0.6-1.1-0.8c-0.3-0.3-0.6-0.5-0.9-0.7c-0.3-0.2-0.6-0.4-0.8-0.6c-0.4-0.3-0.7-0.5-0.9-0.6
		c-0.4-0.3-0.9-0.2-1.2,0.1l-14.9,16.9c-0.3,0.3-0.3,0.8,0.1,1.1c0.1,0.1,0.3,0.2,0.4,0.4c0.2,0.1,0.3,0.3,0.5,0.5
		c0.2,0.2,0.4,0.4,0.6,0.6c0.2,0.2,0.4,0.4,0.7,0.7c0.2,0.2,0.5,0.5,0.7,0.8c0.2,0.3,0.5,0.5,0.8,0.8c0.3,0.3,0.5,0.6,0.8,0.9
		c0.3,0.3,0.5,0.6,0.8,1c0.3,0.3,0.6,0.7,0.8,1c0.3,0.4,0.6,0.7,0.8,1.1c0.1,0.2,0.3,0.4,0.4,0.6c0.1,0.2,0.3,0.4,0.4,0.6
		c0.1,0.2,0.3,0.4,0.4,0.6c0.1,0.2,0.3,0.4,0.4,0.6c0.3,0.4,0.5,0.8,0.8,1.2c0.3,0.4,0.5,0.8,0.8,1.2l0.2,0.3l0.2,0.3
		c0.1,0.2,0.2,0.4,0.4,0.6c0.5,0.8,0.9,1.6,1.3,2.4c0.2,0.4,0.4,0.8,0.6,1.2c0.1,0.2,0.2,0.4,0.3,0.6c0.1,0.2,0.2,0.4,0.3,0.6
		c0.2,0.4,0.3,0.7,0.5,1.1c0.1,0.3,0.3,0.7,0.4,1c0.1,0.2,0.1,0.3,0.2,0.5c0.1,0.2,0.1,0.3,0.2,0.4c0.1,0.3,0.2,0.5,0.3,0.7
		c0.1,0.2,0.2,0.5,0.2,0.7c0.1,0.3,0.2,0.5,0.3,0.8c0.1,0.3,0.2,0.5,0.2,0.7c0.2,0.4,0.7,0.7,1.1,0.5L206.2,86.1z M206.2,86.1"/>
	<path fill="none" stroke="#FFFFFF" stroke-width="2" stroke-miterlimit="10" d="M130.2,55.8c0.2,0,0.5,0.1,0.7,0.1
		c0.3,0,0.6,0.1,0.9,0.1c0.3,0,0.6,0.1,1,0.2c0.3,0,0.6,0.1,0.9,0.2l9.4-18.1c-0.5-0.1-0.9-0.1-1.4-0.2c-0.3,0-0.6-0.1-0.9-0.1
		c-0.3,0-0.6-0.1-0.9-0.1c-0.6-0.1-1.2-0.1-1.7-0.2c-0.6,0-1.1-0.1-1.6-0.1c-0.5,0-1-0.1-1.5-0.1c-0.5,0-0.9,0-1.3-0.1
		c-0.4,0-0.8,0-1.2-0.1c-0.4,0-0.7,0-1,0c-0.4,0-0.8,0-1.1,0c-0.5,0-0.8,0.3-0.9,0.8l-0.9,16.8c0,0.4,0.3,0.8,0.7,0.8
		C129.7,55.8,129.9,55.8,130.2,55.8L130.2,55.8z M130.2,55.8"/>
	<path fill="none" stroke="#FFFFFF" stroke-width="2" stroke-miterlimit="10" d="M155.5,65.1c0.3,0.2,0.5,0.3,0.7,0.5
		c0.2,0.2,0.4,0.3,0.6,0.4c0.1,0.1,0.2,0.2,0.3,0.2c0.1,0.1,0.2,0.2,0.3,0.2c0.2,0.2,0.4,0.3,0.6,0.4c0.4,0.3,1,0.2,1.2-0.2
		l12.3-17.6c0.3-0.4,0.1-0.9-0.3-1.1c-0.2-0.1-0.4-0.2-0.7-0.4c-0.1-0.1-0.2-0.1-0.4-0.2c-0.1-0.1-0.3-0.1-0.4-0.2
		c-0.3-0.2-0.7-0.4-1.1-0.6c-0.4-0.2-0.8-0.4-1.3-0.7c-0.4-0.2-0.9-0.4-1.4-0.6c-0.5-0.2-1-0.5-1.5-0.7c-0.5-0.2-1.1-0.5-1.6-0.7
		c-0.5-0.2-1.1-0.5-1.7-0.7c-0.6-0.2-1.2-0.5-1.8-0.7c-0.2-0.1-0.3-0.1-0.5-0.2L153.8,64c0.3,0.2,0.6,0.4,0.8,0.5
		C154.9,64.7,155.2,64.9,155.5,65.1L155.5,65.1z M155.5,65.1"/>
	<path fill="none" stroke="#FFFFFF" stroke-width="2" stroke-miterlimit="10" d="M113.7,55.8c0.2,0,0.5-0.1,0.7-0.1
		c0.2,0,0.5,0,0.7-0.1c0.5,0,0.9-0.1,1.3-0.1c0.4,0,0.8-0.1,1.2-0.1c0.2,0,0.4,0,0.6,0c0.2,0,0.4,0,0.5,0c0.3,0,0.7,0,1,0
		c0.3,0,0.6,0,0.8,0c0.3,0,0.6,0,0.9,0c0.3,0,0.5,0,0.8,0c0.5,0,0.9-0.4,0.8-0.9l-1.1-15.8c0-0.5-0.5-0.8-1-0.7
		c-0.2,0-0.5,0.1-0.8,0.1c-0.3,0-0.6,0.1-0.9,0.1c-0.4,0.1-0.8,0.1-1.2,0.2c-0.4,0.1-0.9,0.1-1.4,0.2c-0.3,0-0.5,0.1-0.7,0.1
		c-0.2,0-0.5,0.1-0.7,0.1c-0.5,0.1-1,0.2-1.6,0.3c-0.5,0.1-1.1,0.2-1.7,0.4c-0.3,0.1-0.6,0.1-0.9,0.2c-0.3,0.1-0.6,0.1-0.9,0.2
		c-0.6,0.1-1.2,0.3-1.8,0.5c-0.6,0.2-1.2,0.3-1.9,0.5c-0.3,0.1-0.6,0.2-0.9,0.3c-0.3,0.1-0.6,0.2-0.9,0.3c-0.3,0.1-0.6,0.2-1,0.3
		c-0.3,0.1-0.6,0.2-1,0.3c-0.6,0.2-1.3,0.5-1.9,0.7c-0.6,0.2-1.3,0.5-1.9,0.7c-0.3,0.1-0.6,0.2-0.9,0.4c-0.3,0.1-0.6,0.3-0.9,0.4
		c-0.3,0.1-0.6,0.3-0.9,0.4c-0.3,0.1-0.6,0.3-0.9,0.4c-0.6,0.3-1.2,0.5-1.7,0.8c-0.6,0.3-1.1,0.6-1.6,0.8c-0.5,0.3-1.1,0.5-1.5,0.8
		c-0.5,0.3-1,0.5-1.4,0.8c-0.5,0.3-0.9,0.5-1.3,0.8c-0.4,0.3-0.8,0.5-1.2,0.7c-0.4,0.2-0.7,0.5-1.1,0.7c-0.3,0.2-0.6,0.4-0.9,0.6
		c-0.3,0.2-0.5,0.4-0.8,0.5c-0.3,0.2-0.6,0.4-0.8,0.6c-0.4,0.3-0.5,0.7-0.2,1.1l7,9.7c0.2,0.3,0.7,0.5,1.1,0.2
		c0.2-0.1,0.4-0.2,0.6-0.3c0.2-0.1,0.4-0.2,0.7-0.4c0.3-0.1,0.5-0.3,0.8-0.4c0.3-0.1,0.6-0.3,0.9-0.5c0.3-0.2,0.7-0.3,1.1-0.5
		c0.4-0.2,0.7-0.3,1.2-0.5c0.4-0.2,0.8-0.3,1.2-0.5c0.4-0.2,0.9-0.3,1.3-0.5c0.5-0.2,0.9-0.4,1.4-0.5c0.5-0.2,1-0.3,1.5-0.5
		c0.2-0.1,0.5-0.2,0.7-0.2c0.2-0.1,0.5-0.2,0.8-0.2c0.3-0.1,0.5-0.2,0.8-0.2c0.3-0.1,0.5-0.1,0.8-0.2c0.5-0.1,1-0.3,1.5-0.4
		c0.5-0.1,1-0.2,1.6-0.4c0.3-0.1,0.5-0.1,0.8-0.2c0.3-0.1,0.5-0.1,0.8-0.2c0.3,0,0.5-0.1,0.8-0.2c0.3,0,0.5-0.1,0.8-0.1
		c0.5-0.1,1-0.2,1.5-0.2C112.7,55.9,113.2,55.8,113.7,55.8L113.7,55.8z M113.7,55.8"/>
	<g>
		<path fill="none" stroke="#FFFFFF" stroke-width="2" stroke-miterlimit="10" d="M65.8,68.3c-0.2,0.2-0.4,0.5-0.6,0.7
			c-0.2,0.2-0.4,0.5-0.6,0.7c-0.2,0.2-0.4,0.5-0.5,0.8c-0.4,0.5-0.7,1-1.1,1.5c-0.3,0.5-0.7,1-1,1.6L61.8,74l-0.2,0.4
			c-0.2,0.3-0.3,0.5-0.5,0.8c-0.6,1-1.2,2.1-1.8,3.1c-0.3,0.5-0.5,1-0.8,1.5c-0.1,0.2-0.3,0.5-0.4,0.7c-0.1,0.2-0.2,0.5-0.3,0.7
			c-0.2,0.5-0.4,0.9-0.7,1.4c-0.2,0.5-0.4,0.9-0.6,1.3c-0.2,0.4-0.4,0.8-0.5,1.2c-0.2,0.4-0.3,0.8-0.4,1.1c-0.1,0.3-0.3,0.7-0.4,1
			c-0.1,0.3-0.2,0.6-0.3,0.8c-0.1,0.3-0.2,0.6-0.3,0.8c-0.1,0.4,0.1,0.8,0.5,1l6.5,2.3c0.4,0.1,0.9,0,1.1-0.4
			c0.1-0.2,0.2-0.4,0.3-0.7c0.1-0.2,0.2-0.4,0.4-0.7c0.1-0.3,0.3-0.5,0.4-0.8c0.2-0.3,0.3-0.6,0.5-0.9c0.2-0.3,0.4-0.7,0.6-1
			c0.2-0.3,0.4-0.7,0.7-1.1c0.2-0.4,0.5-0.8,0.7-1.1c0.1-0.2,0.3-0.4,0.4-0.6c0.1-0.2,0.3-0.4,0.4-0.6c0.3-0.4,0.6-0.8,0.9-1.2
			c0.6-0.8,1.2-1.7,1.9-2.5c0.2-0.2,0.3-0.4,0.5-0.6l0.3-0.3l0.3-0.3c0.3-0.4,0.7-0.8,1.1-1.2c0.4-0.4,0.7-0.8,1.1-1.2
			c0.2-0.2,0.4-0.4,0.5-0.6c0.2-0.2,0.4-0.4,0.6-0.6c0.2-0.2,0.4-0.4,0.6-0.6c0.2-0.2,0.4-0.4,0.6-0.6c0.4-0.4,0.7-0.7,1.1-1.1
			c0.4-0.4,0.7-0.7,1.1-1c0.4-0.3,0.7-0.7,1.1-1c0.4-0.3,0.7-0.6,1-0.9c0.3-0.3,0.7-0.5,1-0.8c0.3-0.3,0.6-0.5,0.9-0.7
			c0.3-0.2,0.6-0.4,0.8-0.6c0.3-0.2,0.5-0.4,0.7-0.5c0.1-0.1,0.2-0.2,0.3-0.3c0.1-0.1,0.2-0.2,0.3-0.2c0.2-0.2,0.4-0.3,0.6-0.4
			c0.4-0.3,0.5-0.8,0.1-1.2L77,57.7c-0.3-0.4-0.9-0.4-1.2-0.1c-0.2,0.1-0.3,0.3-0.5,0.5c-0.1,0.1-0.2,0.2-0.3,0.3
			c-0.1,0.1-0.2,0.2-0.3,0.3c-0.3,0.2-0.5,0.5-0.8,0.8c-0.3,0.3-0.6,0.6-0.9,0.9c-0.3,0.3-0.6,0.6-1,1c-0.3,0.3-0.7,0.7-1,1.1
			c-0.3,0.4-0.7,0.8-1.1,1.2c-0.4,0.4-0.7,0.8-1.1,1.3c-0.4,0.4-0.8,0.9-1.1,1.3c-0.4,0.5-0.7,0.9-1.1,1.4
			C66.2,67.8,66,68,65.8,68.3L65.8,68.3z M65.8,68.3"/>
		<path fill="none" stroke="#FFFFFF" stroke-width="2" stroke-miterlimit="10" d="M52.3,96.9c0,0.2-0.1,0.4-0.2,0.7
			c-0.1,0.2-0.1,0.5-0.2,0.8c-0.1,0.3-0.1,0.7-0.2,1c-0.1,0.4-0.1,0.8-0.2,1.2c0,0.2-0.1,0.4-0.1,0.6c0,0.2-0.1,0.4-0.1,0.6
			c-0.1,0.9-0.3,1.8-0.4,2.9c-0.1,0.5-0.1,1-0.2,1.6c0,0.5-0.1,1.1-0.1,1.6c-0.1,1.1-0.1,2.3-0.1,3.4l0,0.4l0,0.4c0,0.3,0,0.6,0,0.9
			c0,0.3,0,0.6,0,0.9l0,0.4l0,0.4c0,0.6,0.1,1.2,0.1,1.8l0,0.4l0,0.1l0,0.3c0,0.3,0,0.6,0.1,0.8c0,0.3,0,0.6,0.1,0.8
			c0,0.3,0.1,0.6,0.1,0.9c0,0.3,0.1,0.6,0.1,0.8c0,0.1,0,0.3,0,0.4c0,0.1,0,0.3,0.1,0.4c0.1,0.5,0.1,1.1,0.2,1.6
			c0.1,0.5,0.2,1,0.3,1.5c0.1,0.5,0.2,1,0.3,1.4c0,0,0,0.1,0,0.1c0.1,0.4,0.4,0.7,0.8,0.7H55c0.5,0,0.9-0.4,0.9-0.8
			c0-0.1,0-0.2,0-0.4c0-0.4-0.1-0.9-0.1-1.4c0-0.5,0-1-0.1-1.5c0-0.5,0-1,0-1.5c0-0.1,0-0.3,0-0.4c0-0.1,0-0.3,0-0.4
			c0-0.3,0-0.5,0-0.8c0-0.3,0-0.5,0-0.8c0-0.3,0-0.6,0-0.8c0-0.3,0-0.6,0-0.8l0-0.2l0-0.1l0,0c0,0,0,0,0,0l0,0l0,0l0-0.4
			c0-0.5,0.1-1.1,0.1-1.6l0-0.4l0-0.4c0-0.3,0.1-0.5,0.1-0.8c0-0.3,0.1-0.5,0.1-0.8l0-0.4l0.1-0.4c0.2-1.1,0.3-2.1,0.5-3.1
			c0.1-0.5,0.2-1,0.3-1.5c0.1-0.5,0.2-1,0.3-1.4c0.2-0.9,0.5-1.8,0.7-2.6c0.1-0.2,0.1-0.4,0.2-0.6c0.1-0.2,0.1-0.4,0.2-0.5
			c0.1-0.3,0.2-0.7,0.3-1c0.1-0.3,0.2-0.6,0.3-0.9c0.1-0.3,0.2-0.5,0.3-0.8c0.1-0.3,0.2-0.5,0.2-0.7c0.2-0.4-0.1-0.9-0.6-1l-5.8-1.4
			C52.9,96.1,52.4,96.4,52.3,96.9L52.3,96.9z M52.3,96.9"/>
	</g>
	<path fill="none" stroke="#FFFFFF" stroke-width="2" stroke-miterlimit="10" d="M117.6,124.9c1.9,0.9,3.9,1.3,5.8,1.3
		c4.9,0,9.6-2.6,11.9-7c0.4-0.9,0.8-1.8,1-2.7l13.4-54.6l5.1-20.8l3.2-12.9c0.4-1.5-0.9-2.5-2.2-2.5c-0.7,0-1.5,0.3-1.9,1.2
		l-6.5,12.4l-9.5,18.2l-26.5,50.8C108.3,114.4,111,121.9,117.6,124.9L117.6,124.9z M124,107.3c3.6,0,6.5,2.7,6.5,6.1
		c0,3.4-2.9,6.1-6.5,6.1c-3.6,0-6.5-2.7-6.5-6.1C117.4,110,120.4,107.3,124,107.3L124,107.3z M124,107.3"/>
</g>
</svg>
