<?xml version="1.0" encoding="utf-8"?>
<!-- Generator: Adobe Illustrator 16.0.0, SVG Export Plug-In . SVG Version: 6.00 Build 0)  -->
<!DOCTYPE svg PUBLIC "-//W3C//DTD SVG 1.1//EN" "http://www.w3.org/Graphics/SVG/1.1/DTD/svg11.dtd">
<svg version="1.1" id="Layer_1" xmlns="http://www.w3.org/2000/svg" xmlns:xlink="http://www.w3.org/1999/xlink" x="0px" y="0px"
	 width="155px" height="155px" viewBox="0 0 155 155" enable-background="new 0 0 155 155" xml:space="preserve">
<g>
	<path fill="none" stroke="#29ABE2" stroke-width="2" stroke-miterlimit="10" d="M152.7,77.7c0,41.4-33.6,75-75,75
		c-41.4,0-75-33.6-75-75c0-41.4,33.6-75,75-75C119.2,2.7,152.7,36.2,152.7,77.7z"/>
	<g>
		<path fill="#29ABE2" d="M76.7,51.1h2.5v4.4c4.5,0.1,8.1,1.1,10.9,2.8l-1.3,3.7c-1.1-0.6-2.5-1.1-4.2-1.6c-1.7-0.5-3.5-0.8-5.4-0.9
			V73l2.7,0.7c3.2,0.8,5.6,2,7.2,3.6c1.6,1.7,2.5,4,2.5,7.1c0,3.8-1.1,6.7-3.3,8.7s-5.2,3.1-9.1,3.3v4.6h-2.5v-4.6
			c-2.8-0.1-5.3-0.4-7.5-1.1c-2.2-0.6-4-1.3-5.3-2.1l1.4-3.8c3.6,1.7,7.4,2.7,11.4,3V77l-3.9-1c-5.9-1.5-8.9-4.7-8.9-9.5
			c0-3.5,1.1-6.1,3.4-7.9c2.3-1.8,5.4-2.8,9.4-3V51.1z M76.7,72.4V59.7c-5.3,0.3-8,2.5-8,6.6c0,1.5,0.5,2.7,1.5,3.6
			c1,0.9,2.4,1.6,4.4,2.1L76.7,72.4z M79.2,77.6v14.7c5.1-0.3,7.7-2.9,7.7-7.8c0-1.7-0.5-3.1-1.4-4.1S83,78.6,80.6,78L79.2,77.6z"/>
	</g>
	<path fill="none" stroke="#29ABE2" stroke-miterlimit="10" d="M135.6,77.7c0,32-25.9,57.9-57.9,57.9c-32,0-57.9-25.9-57.9-57.9
		c0-32,25.9-57.9,57.9-57.9C109.7,19.8,135.6,45.7,135.6,77.7z"/>
</g>
</svg>
