<?xml version="1.0" encoding="utf-8"?>
<!-- Generator: Adobe Illustrator 16.0.0, SVG Export Plug-In . SVG Version: 6.00 Build 0)  -->
<!DOCTYPE svg PUBLIC "-//W3C//DTD SVG 1.1//EN" "http://www.w3.org/Graphics/SVG/1.1/DTD/svg11.dtd">
<svg version="1.1" id="Layer_1" xmlns="http://www.w3.org/2000/svg" xmlns:xlink="http://www.w3.org/1999/xlink" x="0px" y="0px"
	 width="155px" height="155px" viewBox="0 0 155 155" enable-background="new 0 0 155 155" xml:space="preserve">
<g>
	<path fill="none" stroke="#29ABE2" stroke-width="2" stroke-miterlimit="10" d="M77,78c18.1,0,32.8-16.8,32.8-37.5
		C109.8,19.8,95.1,3,77,3C58.9,3,44.2,19.8,44.2,40.5C44.2,61.2,58.9,78,77,78L77,78z M52.4,22.6c3,8.4,12.6,14.5,24,14.5
		c11.5,0,31.4-1.4,31.4,6.7c0,18.4-14.1,33.3-31.4,33.3c-17.3,0-31.4-14.9-31.4-33.3C45.1,35.7,47.9,28.4,52.4,22.6L52.4,22.6z"/>
	<path fill="none" stroke="#29ABE2" stroke-width="2" stroke-miterlimit="10" d="M133.2,115.5c0-15.5-12.6-28.1-28.1-28.1H83.6
		l2.1,2c1.1,1,1.1,2.7,0,3.7l-4.5,4.2c-1.1,1-1.6,2.9-1,4.2l8.7,20.9c0.5,1.3,0.3,3.3-0.5,4.4l-9.9,14.6c-0.8,1.2-2.1,1.2-2.9,0
		l-9.9-14.6c-0.8-1.2-1-3.2-0.5-4.4l8.7-20.9c0.5-1.3,0.1-3.1-1-4.2L68.3,93c-1.1-1-1.1-2.7,0-3.7l2.1-2H48.9
		c-15.5,0-28.1,12.6-28.1,28.1v28.1c0,5.2,4.2,9.4,9.4,9.4h93.8c5.2,0,9.4-4.2,9.4-9.4V115.5z M133.2,115.5"/>
</g>
</svg>
