<?xml version="1.0" encoding="utf-8"?>
<!-- Generator: Adobe Illustrator 16.0.0, SVG Export Plug-In . SVG Version: 6.00 Build 0)  -->
<!DOCTYPE svg PUBLIC "-//W3C//DTD SVG 1.1//EN" "http://www.w3.org/Graphics/SVG/1.1/DTD/svg11.dtd">
<svg version="1.1" id="SemiBold" xmlns="http://www.w3.org/2000/svg" xmlns:xlink="http://www.w3.org/1999/xlink" x="0px" y="0px"
	 width="229.5px" height="91.5px" viewBox="0 0 229.5 91.5" enable-background="new 0 0 229.5 91.5" xml:space="preserve">
<g>
	<path fill="#FFFFFF" stroke="#1B75BB" stroke-miterlimit="10" d="M225.4,73c0,5.4-4.3,9.7-9.7,9.7H15.4c-5.4,0-9.7-4.3-9.7-9.7
		V20.5c0-5.4,4.3-9.7,9.7-9.7h200.2c5.4,0,9.7,4.3,9.7,9.7V73z"/>
	<path fill="#1B75BB" d="M43.7,23.1H25.8c-2.1,0-3.9,1.7-3.9,3.9v39.6c0,2.1,1.7,3.9,3.9,3.9h17.9c2.1,0,3.9-1.7,3.9-3.9V27
		C47.6,24.9,45.8,23.1,43.7,23.1z M34.7,67.7c-1.4,0-2.6-1.2-2.6-2.6s1.2-2.6,2.6-2.6c1.4,0,2.6,1.2,2.6,2.6S36.2,67.7,34.7,67.7z
		 M44.5,61.2H24.9V32h19.6V61.2z"/>
	<g>
		<path fill="#1B75BB" d="M62.2,30.2l-1.1,3.3h-1.4L63.3,23h1.6l3.6,10.5H67l-1.1-3.3H62.2z M65.6,29.1l-1-3
			c-0.2-0.7-0.4-1.3-0.5-1.9h0c-0.1,0.6-0.3,1.3-0.5,1.9l-1,3H65.6z"/>
		<path fill="#1B75BB" d="M69.9,26l1.5,4.2c0.2,0.7,0.5,1.3,0.6,1.9h0c0.2-0.6,0.4-1.2,0.6-1.9l1.5-4.2h1.4l-3,7.5h-1.3L68.4,26
			H69.9z"/>
		<path fill="#1B75BB" d="M81.8,31.7c0,0.7,0,1.3,0.1,1.8h-1.2l-0.1-0.9h0c-0.4,0.6-1.2,1.1-2.3,1.1c-1.5,0-2.3-1.1-2.3-2.2
			c0-1.8,1.6-2.8,4.5-2.8v-0.2c0-0.6-0.2-1.8-1.7-1.7c-0.7,0-1.4,0.2-2,0.6l-0.3-0.9c0.6-0.4,1.5-0.7,2.5-0.7c2.3,0,2.9,1.6,2.9,3.1
			V31.7z M80.5,29.6c-1.5,0-3.2,0.2-3.2,1.7c0,0.9,0.6,1.3,1.3,1.3c1,0,1.6-0.6,1.9-1.3c0-0.1,0.1-0.3,0.1-0.4V29.6z"/>
		<path fill="#1B75BB" d="M84.6,24.6c-0.5,0-0.9-0.4-0.9-0.9s0.4-0.9,0.9-0.9c0.5,0,0.9,0.4,0.9,0.9S85.2,24.6,84.6,24.6L84.6,24.6z
			 M83.9,33.5V26h1.4v7.5H83.9z"/>
		<path fill="#1B75BB" d="M87.5,22.4h1.4v11h-1.4V22.4z"/>
		<path fill="#1B75BB" d="M96.4,31.7c0,0.7,0,1.3,0.1,1.8h-1.2l-0.1-0.9h0c-0.4,0.6-1.2,1.1-2.3,1.1c-1.5,0-2.3-1.1-2.3-2.2
			c0-1.8,1.6-2.8,4.5-2.8v-0.2c0-0.6-0.2-1.8-1.7-1.7c-0.7,0-1.4,0.2-2,0.6L91,26.4c0.6-0.4,1.5-0.7,2.5-0.7c2.3,0,2.9,1.6,2.9,3.1
			V31.7z M95,29.6c-1.5,0-3.2,0.2-3.2,1.7c0,0.9,0.6,1.3,1.3,1.3c1,0,1.6-0.6,1.8-1.3c0-0.1,0.1-0.3,0.1-0.4V29.6z"/>
		<path fill="#1B75BB" d="M98.5,22.4h1.4v4.7h0c0.5-0.8,1.4-1.4,2.6-1.4c1.9,0,3.2,1.6,3.2,3.8c0,2.7-1.7,4-3.4,4
			c-1.1,0-1.9-0.4-2.5-1.4h0l-0.1,1.2h-1.2c0-0.5,0.1-1.3,0.1-1.9V22.4z M99.8,30.5c0,0.2,0,0.3,0,0.5c0.3,0.9,1.1,1.6,2,1.6
			c1.4,0,2.3-1.2,2.3-2.9c0-1.5-0.8-2.8-2.2-2.8c-0.9,0-1.8,0.7-2.1,1.7c0,0.2-0.1,0.4-0.1,0.6V30.5z"/>
		<path fill="#1B75BB" d="M107.2,22.4h1.4v11h-1.4V22.4z"/>
		<path fill="#1B75BB" d="M111.6,29.9c0,1.8,1.2,2.6,2.6,2.6c1,0,1.6-0.2,2.1-0.4l0.2,1c-0.5,0.2-1.3,0.5-2.5,0.5
			c-2.3,0-3.7-1.5-3.7-3.8c0-2.3,1.4-4.1,3.5-4.1c2.5,0,3.1,2.2,3.1,3.5c0,0.3,0,0.5,0,0.7L111.6,29.9z M115.6,29
			c0-0.9-0.4-2.2-1.9-2.2c-1.4,0-2,1.3-2.1,2.2H115.6z"/>
		<path fill="#1B75BB" d="M124.8,33.6c-2,0-3.6-1.5-3.6-3.9c0-2.5,1.7-4,3.7-4c2.2,0,3.6,1.6,3.6,3.9
			C128.5,32.4,126.6,33.6,124.8,33.6L124.8,33.6z M124.8,32.6c1.3,0,2.3-1.2,2.3-2.9c0-1.3-0.6-2.9-2.3-2.9c-1.6,0-2.3,1.5-2.3,2.9
			C122.5,31.4,123.5,32.6,124.8,32.6L124.8,32.6z"/>
		<path fill="#1B75BB" d="M130.2,28c0-0.8,0-1.4-0.1-2h1.2l0.1,1.2h0c0.4-0.7,1.2-1.4,2.5-1.4c1,0,2.7,0.6,2.7,3.2v4.5h-1.4v-4.3
			c0-1.2-0.4-2.2-1.7-2.2c-0.9,0-1.6,0.6-1.8,1.4c-0.1,0.2-0.1,0.4-0.1,0.6v4.5h-1.4V28z"/>
		<path fill="#1B75BB" d="M143.6,24.2V26h2v1h-2V31c0,0.9,0.3,1.5,1,1.5c0.4,0,0.6,0,0.8-0.1l0.1,1c-0.3,0.1-0.7,0.2-1.2,0.2
			c-0.6,0-1.2-0.2-1.5-0.6c-0.4-0.4-0.5-1.1-0.5-2V27h-1.2v-1h1.2v-1.4L143.6,24.2z"/>
		<path fill="#1B75BB" d="M147,22.4h1.4v4.7h0c0.2-0.4,0.6-0.7,1-1c0.4-0.2,0.9-0.4,1.4-0.4c1,0,2.6,0.6,2.6,3.2v4.5H152v-4.3
			c0-1.2-0.5-2.2-1.7-2.2c-0.9,0-1.6,0.6-1.8,1.4c-0.1,0.2-0.1,0.4-0.1,0.7v4.5H147V22.4z"/>
		<path fill="#1B75BB" d="M156.3,29.9c0,1.8,1.2,2.6,2.6,2.6c1,0,1.6-0.2,2.1-0.4l0.2,1c-0.5,0.2-1.3,0.5-2.5,0.5
			c-2.3,0-3.7-1.5-3.7-3.8c0-2.3,1.4-4.1,3.5-4.1c2.5,0,3.1,2.2,3.1,3.5c0,0.3,0,0.5,0,0.7L156.3,29.9z M160.3,29
			c0-0.9-0.4-2.2-1.9-2.2c-1.4,0-2,1.3-2.1,2.2H160.3z"/>
		<path fill="#1B75BB" d="M167.1,24.6c-0.5,0-0.9-0.4-0.9-0.9s0.4-0.9,0.9-0.9c0.5,0,0.9,0.4,0.9,0.9S167.7,24.6,167.1,24.6
			L167.1,24.6z M166.4,33.5V26h1.4v7.5H166.4z"/>
		<path fill="#1B75BB" d="M170.1,23.1c0.7-0.1,1.5-0.2,2.6-0.2c1.3,0,2.3,0.3,2.9,0.9c0.6,0.5,0.9,1.3,0.9,2.2
			c0,0.9-0.3,1.7-0.8,2.2c-0.7,0.8-1.9,1.1-3.2,1.1c-0.4,0-0.8,0-1.1-0.1v4.2h-1.4V23.1z M171.4,28.2c0.3,0.1,0.7,0.1,1.1,0.1
			c1.6,0,2.6-0.8,2.6-2.2c0-1.4-1-2.1-2.5-2.1c-0.6,0-1,0.1-1.3,0.1V28.2z"/>
		<path fill="#1B75BB" d="M178.1,22.4h1.4v4.7h0c0.2-0.4,0.6-0.7,1-1c0.4-0.2,0.9-0.4,1.4-0.4c1,0,2.6,0.6,2.6,3.2v4.5h-1.4v-4.3
			c0-1.2-0.5-2.2-1.7-2.2c-0.9,0-1.6,0.6-1.8,1.4c-0.1,0.2-0.1,0.4-0.1,0.7v4.5h-1.4V22.4z"/>
		<path fill="#1B75BB" d="M189.7,33.6c-2,0-3.6-1.5-3.6-3.9c0-2.5,1.7-4,3.7-4c2.2,0,3.6,1.6,3.6,3.9
			C193.5,32.4,191.5,33.6,189.7,33.6L189.7,33.6z M189.8,32.6c1.3,0,2.3-1.2,2.3-2.9c0-1.3-0.6-2.9-2.3-2.9c-1.6,0-2.3,1.5-2.3,2.9
			C187.5,31.4,188.4,32.6,189.8,32.6L189.8,32.6z"/>
		<path fill="#1B75BB" d="M195.1,28c0-0.8,0-1.4-0.1-2h1.2l0.1,1.2h0c0.4-0.7,1.2-1.4,2.5-1.4c1,0,2.7,0.6,2.7,3.2v4.5h-1.4v-4.3
			c0-1.2-0.5-2.2-1.7-2.2c-0.9,0-1.6,0.6-1.8,1.4c-0.1,0.2-0.1,0.4-0.1,0.6v4.5h-1.4V28z"/>
		<path fill="#1B75BB" d="M204.4,29.9c0,1.8,1.2,2.6,2.6,2.6c1,0,1.6-0.2,2.1-0.4l0.2,1c-0.5,0.2-1.3,0.5-2.5,0.5
			c-2.3,0-3.7-1.5-3.7-3.8c0-2.3,1.4-4.1,3.5-4.1c2.5,0,3.1,2.2,3.1,3.5c0,0.3,0,0.5,0,0.7L204.4,29.9z M208.4,29
			c0-0.9-0.4-2.2-1.9-2.2c-1.4,0-2,1.3-2.1,2.2H208.4z"/>
	</g>
	<g>
		<path fill="#1B75BB" d="M68.6,40.6l-9.2,27.1h4.2l2.8-8.3h8.9l2.8,8.3h4.3l-9.3-27.1H68.6z M70.8,45c0.3,1.2,0.6,2.5,1.1,3.8
			l2.5,7.2h-7.1l2.4-7.2C70.1,47.6,70.5,46.4,70.8,45z"/>
		<path fill="#1B75BB" d="M94.4,47.6c-2.8,0-5,1.1-6.5,3.1L87.7,48H84l0,0.3c0.1,1.7,0.2,3.5,0.2,6.2v20.9h4.1v-9.8
			c1.3,1.5,3.3,2.4,5.6,2.4c2.4,0,4.6-0.9,6.2-2.6c1.8-1.9,2.7-4.6,2.7-7.9c0-2.9-0.8-5.4-2.4-7.2C98.9,48.6,96.8,47.6,94.4,47.6z
			 M93.4,51c3.7,0,5.3,3.4,5.3,6.7c0,4.3-2.1,7-5.4,7c-2.3,0-4.3-1.6-4.8-3.8c-0.1-0.3-0.1-0.8-0.1-1.3v-3.3c0-0.3,0.1-0.7,0.1-1
			c0-0.1,0-0.2,0.1-0.3C89.1,52.6,91.1,51,93.4,51z"/>
		<path fill="#1B75BB" d="M115.5,47.6c-2.8,0-5,1.1-6.5,3.1l-0.2-2.7h-3.8l0,0.3c0.1,1.7,0.2,3.5,0.2,6.2v20.9h4.1v-9.8
			c1.3,1.5,3.3,2.4,5.6,2.4c2.4,0,4.6-0.9,6.2-2.6c1.8-1.9,2.7-4.6,2.7-7.9c0-2.9-0.8-5.4-2.4-7.2C120,48.6,117.9,47.6,115.5,47.6z
			 M114.5,51c3.7,0,5.3,3.4,5.3,6.7c0,4.3-2.1,7-5.4,7c-2.3,0-4.3-1.6-4.8-3.8c-0.1-0.3-0.1-0.8-0.1-1.3v-3.3c0-0.3,0.1-0.7,0.1-1
			c0-0.1,0-0.2,0.1-0.3C110.2,52.6,112.2,51,114.5,51z"/>
		<path fill="#1B75BB" d="M142,52.1c-3.8-1.5-5.1-2.6-5.1-4.8c0-1.8,1.4-3.6,4.7-3.6c2.7,0,4.4,0.9,4.8,1.2l0.3,0.2l1.2-3.4
			l-0.2-0.1c-0.7-0.4-2.6-1.3-6-1.3c-5.2,0-8.9,3.1-8.9,7.5c0,3.6,2.3,6.1,7.2,7.8c3.5,1.3,4.8,2.6,4.8,4.9c0,2.6-2,4.2-5.2,4.2
			c-2.1,0-4.2-0.6-5.9-1.7l-0.4-0.2l-1.1,3.5l0.2,0.1c1.5,1,4.5,1.8,6.9,1.8c7.1,0,9.6-4.3,9.6-8C148.9,56.3,146.9,54,142,52.1z"/>
		<path fill="#1B75BB" d="M156.3,43.4l-4,1.3V48h-2.9v3.3h2.9v10c0,2.4,0.5,4.1,1.4,5.2c0.9,1,2.3,1.6,4,1.6c1.6,0,2.7-0.3,3.2-0.5
			l0.2-0.1l-0.2-3.3l-0.4,0.1c-0.5,0.2-1.1,0.2-1.9,0.2c-1.6,0-2.3-1-2.3-3.4v-9.9h4.9V48h-4.9V43.4z"/>
		<path fill="#1B75BB" d="M171.4,47.6c-5.7,0-9.7,4.3-9.7,10.4c0,5.9,3.9,10.1,9.4,10.1h0c4.7,0,9.7-3.3,9.7-10.5
			c0-2.9-0.9-5.4-2.6-7.3C176.6,48.6,174.2,47.6,171.4,47.6z M171.3,50.8c3.7,0,5.4,3.6,5.4,6.9c0,4.1-2.3,7.1-5.4,7.1h0
			c-3.1,0-5.4-2.9-5.4-7C165.8,54.4,167.5,50.8,171.3,50.8z"/>
		<path fill="#1B75BB" d="M193.5,47.8l-0.2-0.1c-0.4-0.1-0.7-0.1-1-0.1c-2.1,0-4.1,1.3-5.1,3.3l-0.1-2.9h-3.7l0,0.3
			c0.1,1.6,0.2,3.4,0.2,5.9l0,13.4h4.1V57.2c0-0.6,0-1.1,0.1-1.6c0.5-2.5,2.2-4.1,4.3-4.1c0.4,0,0.8,0,1.1,0.1l0.4,0V47.8z"/>
		<path fill="#1B75BB" d="M202.7,47.6c-5.5,0-9.3,4.4-9.3,10.6c0,6,3.8,9.9,9.7,9.9c3.1,0,5.2-0.7,6.5-1.2l0.2-0.1l-0.8-3.1
			l-0.3,0.1c-1.1,0.5-2.6,0.9-5.1,0.9c-1.8,0-5.9-0.6-6.1-5.9l13.2,0l0.1-0.3c0.1-0.4,0.1-1,0.1-1.7
			C210.8,52.6,208.7,47.6,202.7,47.6z M202.4,50.7c1.3,0,2.3,0.4,3,1.1c1.2,1.2,1.4,3,1.4,3.8h-9.4
			C197.9,53.3,199.3,50.7,202.4,50.7z"/>
	</g>
</g>
</svg>
