<?xml version="1.0" encoding="utf-8"?>
<!-- Generator: Adobe Illustrator 16.0.0, SVG Export Plug-In . SVG Version: 6.00 Build 0)  -->
<!DOCTYPE svg PUBLIC "-//W3C//DTD SVG 1.1//EN" "http://www.w3.org/Graphics/SVG/1.1/DTD/svg11.dtd">
<svg version="1.1" id="Layer_1" xmlns="http://www.w3.org/2000/svg" xmlns:xlink="http://www.w3.org/1999/xlink" x="0px" y="0px"
	 width="25px" height="25.1px" viewBox="0 0 25 25.1" enable-background="new 0 0 25 25.1" xml:space="preserve">
<g>
	<g>
		<g>
			<path fill-rule="evenodd" clip-rule="evenodd" fill="#0073C6" d="M16.4,13.3H8.6c-0.4,0-0.8,0.3-0.8,0.8c0,0.4,0.3,0.8,0.8,0.8
				h7.8c0.4,0,0.8-0.4,0.8-0.8C17.2,13.7,16.8,13.3,16.4,13.3L16.4,13.3z M18,8.6H7C6.6,8.6,6.2,9,6.2,9.4c0,0.4,0.4,0.8,0.8,0.8H18
				c0.4,0,0.8-0.3,0.8-0.8C18.7,9,18.4,8.6,18,8.6L18,8.6z M12.5,0C5.6,0,0,4.9,0,11c0,3.5,1.8,6.5,4.7,8.6v5.6l5.5-3.3
				c0.8,0.1,1.5,0.2,2.3,0.2C19.4,21.9,25,17,25,11C25,4.9,19.4,0,12.5,0L12.5,0z M12.5,20.4c-0.9,0-1.8-0.1-2.6-0.3l-3.7,2.2l0-3.6
				C3.4,17,1.6,14.2,1.6,11c0-5.2,4.9-9.4,10.9-9.4c6,0,10.9,4.2,10.9,9.4C23.4,16.2,18.5,20.4,12.5,20.4L12.5,20.4z M12.5,20.4"/>
		</g>
	</g>
</g>
</svg>
