<?xml version="1.0" encoding="utf-8"?>
<!-- Generator: Adobe Illustrator 16.0.0, SVG Export Plug-In . SVG Version: 6.00 Build 0)  -->
<!DOCTYPE svg PUBLIC "-//W3C//DTD SVG 1.1//EN" "http://www.w3.org/Graphics/SVG/1.1/DTD/svg11.dtd">
<svg version="1.1" id="Layer_1" xmlns="http://www.w3.org/2000/svg" xmlns:xlink="http://www.w3.org/1999/xlink" x="0px" y="0px"
	 width="472.5px" height="505.8px" viewBox="0 0 472.5 505.8" enable-background="new 0 0 472.5 505.8" xml:space="preserve">
<g>
	<g opacity="0.5">
		<g>
			<polygon id="triangle36_200_" fill="none" stroke="#BCBEC0" stroke-miterlimit="10" points="218.4,76.1 270.3,115.8 183.5,127.5 
							"/>
			<polygon id="triangle36_199_" fill="none" stroke="#BCBEC0" stroke-miterlimit="10" points="183.5,127.5 218.4,76.1 143,94.2 			
				"/>
			<polygon id="triangle36_198_" fill="none" stroke="#BCBEC0" stroke-miterlimit="10" points="143,94.2 218.4,76.1 177.7,49.7 			
				"/>
			<polygon id="triangle36_197_" fill="none" stroke="#BCBEC0" stroke-miterlimit="10" points="177.7,49.7 218.4,76.1 229.9,32.2 
							"/>
			<polygon id="triangle36_196_" fill="none" stroke="#BCBEC0" stroke-miterlimit="10" points="229.9,32.2 218.4,76.1 293.2,34.9 
							"/>
			<polygon id="triangle36_195_" fill="none" stroke="#BCBEC0" stroke-miterlimit="10" points="218.4,76.1 270.3,115.8 293.2,34.9 
							"/>
			<polygon id="triangle36_194_" fill="none" stroke="#BCBEC0" stroke-miterlimit="10" points="293.2,34.9 270.3,115.8 314.7,88.6 
							"/>
			<polygon id="triangle36_193_" fill="none" stroke="#BCBEC0" stroke-miterlimit="10" points="293.2,34.9 362.9,69.7 314.7,88.6 
							"/>
			<polygon id="triangle36_192_" fill="none" stroke="#BCBEC0" stroke-miterlimit="10" points="314.7,88.6 362.9,69.7 399.9,106.2 
							"/>
			<polygon id="triangle36_191_" fill="none" stroke="#BCBEC0" stroke-miterlimit="10" points="314.7,88.6 399.9,106.2 363.6,180 
							"/>
			<polygon id="triangle36_190_" fill="none" stroke="#BCBEC0" stroke-miterlimit="10" points="270.3,115.8 314.7,88.6 287.7,168.1 
							"/>
			<polygon id="triangle36_189_" fill="none" stroke="#BCBEC0" stroke-miterlimit="10" points="314.7,88.6 363.6,180 287.7,168.1 
							"/>
			<polygon id="triangle36_188_" fill="none" stroke="#BCBEC0" stroke-miterlimit="10" points="183.5,127.5 270.3,115.8 
				287.7,168.1 			"/>
			<polygon id="triangle36_187_" fill="none" stroke="#BCBEC0" stroke-miterlimit="10" points="183.5,127.5 287.7,168.1 
				185.4,227.1 			"/>
			<polygon id="triangle36_186_" fill="none" stroke="#BCBEC0" stroke-miterlimit="10" points="143,94.2 183.5,127.5 114.5,177.8 
							"/>
			<polygon id="triangle36_185_" fill="none" stroke="#BCBEC0" stroke-miterlimit="10" points="183.5,127.5 185.4,227.1 
				114.5,177.8 			"/>
			<polygon id="triangle36_184_" fill="none" stroke="#BCBEC0" stroke-miterlimit="10" points="143,94.2 114.5,177.8 88.1,106.2 			
				"/>
			<polygon id="triangle36_183_" fill="none" stroke="#BCBEC0" stroke-miterlimit="10" points="88.1,106.2 143,94.2 124.3,57.6 			
				"/>
			<polygon id="triangle36_182_" fill="none" stroke="#BCBEC0" stroke-miterlimit="10" points="143,94.2 177.7,49.7 124.3,57.6 			
				"/>
			<polygon id="triangle36_181_" fill="none" stroke="#BCBEC0" stroke-miterlimit="10" points="177.7,49.7 229.9,32.2 124.3,57.6 
							"/>
			<polygon id="triangle36_180_" fill="none" stroke="#BCBEC0" stroke-miterlimit="10" points="88.1,106.2 124.3,57.6 47.2,130.1 
							"/>
			<polygon id="triangle36_179_" fill="none" stroke="#BCBEC0" stroke-miterlimit="10" points="88.1,106.2 114.5,177.8 47.2,130.1 
							"/>
			<polygon id="triangle36_178_" fill="none" stroke="#BCBEC0" stroke-miterlimit="10" points="47.2,130.1 114.5,177.8 51.2,200.4 
							"/>
			<polygon id="triangle36_177_" fill="none" stroke="#BCBEC0" stroke-miterlimit="10" points="51.2,200.4 114.5,177.8 102.3,267.3 
							"/>
			<polygon id="triangle36_176_" fill="none" stroke="#BCBEC0" stroke-miterlimit="10" points="114.5,177.8 185.4,227.1 
				102.3,267.3 			"/>
			<polygon id="triangle36_175_" fill="none" stroke="#BCBEC0" stroke-miterlimit="10" points="102.3,267.3 185.4,227.1 
				219.4,310.3 			"/>
			<polygon id="triangle36_174_" fill="none" stroke="#BCBEC0" stroke-miterlimit="10" points="339.9,291.6 363.6,180 393.2,280.2 
							"/>
			<polygon id="triangle36_173_" fill="none" stroke="#BCBEC0" stroke-miterlimit="10" points="363.6,180 393.2,280.2 446.9,240.4 
							"/>
			<polygon id="triangle36_172_" fill="none" stroke="#BCBEC0" stroke-miterlimit="10" points="363.6,180 435.5,165.1 452.1,201 			
				"/>
			<polygon id="triangle36_171_" fill="none" stroke="#BCBEC0" stroke-miterlimit="10" points="363.6,180 446.9,240.4 452.1,201 			
				"/>
			<polygon id="triangle36_170_" fill="none" stroke="#BCBEC0" stroke-miterlimit="10" points="393.2,280.2 446.9,240.4 
				455.2,280.1 			"/>
			<polygon id="triangle36_169_" fill="none" stroke="#BCBEC0" stroke-miterlimit="10" points="452.1,201 446.9,240.4 455.2,280.1 
							"/>
			<polygon id="triangle36_168_" fill="none" stroke="#BCBEC0" stroke-miterlimit="10" points="393.2,280.2 455.2,280.1 420.3,375 
							"/>
			<polygon id="triangle36_167_" fill="none" stroke="#BCBEC0" stroke-miterlimit="10" points="339.9,291.6 393.2,280.2 
				345.3,379.5 			"/>
			<polygon id="triangle36_166_" fill="none" stroke="#BCBEC0" stroke-miterlimit="10" points="317.6,461 379.3,424.1 345.3,379.5 
							"/>
			<polygon id="triangle36_165_" fill="none" stroke="#BCBEC0" stroke-miterlimit="10" points="393.2,280.2 420.3,375 345.3,379.5 
							"/>
			<polygon id="triangle36_164_" fill="none" stroke="#BCBEC0" stroke-miterlimit="10" points="379.3,424.1 420.3,375 345.3,379.5 
							"/>
			<polygon id="triangle36_163_" fill="none" stroke="#BCBEC0" stroke-miterlimit="10" points="345.3,379.5 317.6,461 270.2,409.2 
							"/>
			<polygon id="triangle36_162_" fill="none" stroke="#BCBEC0" stroke-miterlimit="10" points="219.4,310.3 270.2,409.2 
				159.2,386.8 			"/>
			<polygon id="triangle36_161_" fill="none" stroke="#BCBEC0" stroke-miterlimit="10" points="102.3,267.3 219.4,310.3 94.3,326.2 
							"/>
			<polygon id="triangle36_160_" fill="none" stroke="#BCBEC0" stroke-miterlimit="10" points="159.2,386.8 219.4,310.3 94.3,326.2 
							"/>
			<polygon id="triangle36_159_" fill="none" stroke="#BCBEC0" stroke-miterlimit="10" points="51.2,200.4 102.3,267.3 43.4,277.7 
							"/>
			<polygon id="triangle36_158_" fill="none" stroke="#BCBEC0" stroke-miterlimit="10" points="102.3,267.3 94.3,326.2 43.4,277.7 
							"/>
			<polygon id="triangle36_157_" fill="none" stroke="#BCBEC0" stroke-miterlimit="10" points="51.2,200.4 43.4,277.7 16.5,244.9 
							"/>
			<polygon id="triangle36_156_" fill="none" stroke="#BCBEC0" stroke-miterlimit="10" points="16.5,244.9 51.2,200.4 23,190 			"/>
			<polygon id="triangle36_155_" fill="none" stroke="#BCBEC0" stroke-miterlimit="10" points="47.2,130.1 51.2,200.4 23,190 			"/>
			<polygon id="triangle36_154_" fill="none" stroke="#BCBEC0" stroke-miterlimit="10" points="16.5,244.9 43.4,277.7 21,319.9 			
				"/>
			<polygon id="triangle36_153_" fill="none" stroke="#BCBEC0" stroke-miterlimit="10" points="43.4,277.7 94.3,326.2 21,319.9 			
				"/>
			<polygon id="triangle36_152_" fill="none" stroke="#BCBEC0" stroke-miterlimit="10" points="21,319.9 94.3,326.2 45.8,377.2 			
				"/>
			<polygon id="triangle36_151_" fill="none" stroke="#BCBEC0" stroke-miterlimit="10" points="45.8,377.2 94.3,326.2 83.2,425.3 
							"/>
			<polygon id="triangle36_150_" fill="none" stroke="#BCBEC0" stroke-miterlimit="10" points="94.3,326.2 159.2,386.8 83.2,425.3 
							"/>
			<polygon id="triangle36_149_" fill="none" stroke="#BCBEC0" stroke-miterlimit="10" points="83.2,425.3 159.2,386.8 173.1,467.5 
							"/>
			<polygon id="triangle36_148_" fill="none" stroke="#BCBEC0" stroke-miterlimit="10" points="270.2,409.2 317.6,461 257,482.3 			
				"/>
			<polygon id="triangle36_147_" fill="none" stroke="#BCBEC0" stroke-miterlimit="10" points="173.1,467.5 257,482.3 206.6,438.6 
							"/>
			<polygon id="triangle36_146_" fill="none" stroke="#BCBEC0" stroke-miterlimit="10" points="270.2,409.2 257,482.3 206.6,438.6 
							"/>
			<polygon id="triangle36_145_" fill="none" stroke="#BCBEC0" stroke-miterlimit="10" points="159.2,386.8 173.1,467.5 
				206.6,438.6 			"/>
			<polygon id="triangle36_144_" fill="none" stroke="#BCBEC0" stroke-miterlimit="10" points="159.2,386.8 270.2,409.2 
				206.6,438.6 			"/>
			<polygon id="triangle36_143_" fill="none" stroke="#BCBEC0" stroke-miterlimit="10" points="219.4,310.3 270.2,409.2 300.2,340 
							"/>
			<polygon id="triangle36_142_" fill="none" stroke="#BCBEC0" stroke-miterlimit="10" points="270.2,409.2 345.3,379.5 300.2,340 
							"/>
			<polygon id="triangle36_141_" fill="none" stroke="#BCBEC0" stroke-miterlimit="10" points="339.9,291.6 345.3,379.5 300.2,340 
							"/>
			<polygon id="triangle36_140_" fill="none" stroke="#BCBEC0" stroke-miterlimit="10" points="219.4,310.3 300.2,340 276.2,255.6 
							"/>
			<polygon id="triangle36_139_" fill="none" stroke="#BCBEC0" stroke-miterlimit="10" points="287.7,168.1 363.6,180 276.2,255.6 
							"/>
			<polygon id="triangle36_138_" fill="none" stroke="#BCBEC0" stroke-miterlimit="10" points="300.2,340 339.9,291.6 276.2,255.6 
							"/>
			<polygon id="triangle36_137_" fill="none" stroke="#BCBEC0" stroke-miterlimit="10" points="339.9,291.6 363.6,180 276.2,255.6 
							"/>
			<polygon id="triangle36_136_" fill="none" stroke="#BCBEC0" stroke-miterlimit="10" points="185.4,227.1 219.4,310.3 
				276.2,255.6 			"/>
			<polygon id="triangle36_135_" fill="none" stroke="#BCBEC0" stroke-miterlimit="10" points="185.4,227.1 287.7,168.1 
				276.2,255.6 			"/>
			<polygon id="triangle36_134_" fill="none" stroke="#BCBEC0" stroke-miterlimit="10" points="399.9,106.2 435.5,165.1 363.6,180 
							"/>
		</g>
		<circle fill="#808285" stroke="#BCBEC0" stroke-miterlimit="10" cx="287.7" cy="168.1" r="6"/>
		<circle fill="#808285" stroke="#BCBEC0" stroke-miterlimit="10" cx="143" cy="94.3" r="6"/>
		<circle fill="#808285" stroke="#BCBEC0" stroke-miterlimit="10" cx="47.6" cy="131.7" r="8.2"/>
		<circle fill="#808285" stroke="#BCBEC0" stroke-miterlimit="10" cx="177.4" cy="51.3" r="8.2"/>
		<circle fill="#808285" stroke="#BCBEC0" stroke-miterlimit="10" cx="94.1" cy="328.2" r="8.2"/>
		<circle fill="#808285" stroke="#BCBEC0" stroke-miterlimit="10" cx="17.1" cy="245.4" r="8.2"/>
		<circle fill="#808285" stroke="#BCBEC0" stroke-miterlimit="10" cx="270.2" cy="116.8" r="8.2"/>
		<circle fill="#808285" stroke="#BCBEC0" stroke-miterlimit="10" cx="363.8" cy="180.5" r="8.2"/>
		<circle fill="#808285" stroke="#BCBEC0" stroke-miterlimit="10" cx="451.6" cy="201.5" r="8.2"/>
		<circle fill="#808285" stroke="#BCBEC0" stroke-miterlimit="10" cx="378.8" cy="425.6" r="8.2"/>
		<circle fill="#808285" stroke="#BCBEC0" stroke-miterlimit="10" cx="269.9" cy="409.7" r="8.2"/>
		<circle fill="#808285" stroke="#BCBEC0" stroke-miterlimit="10" cx="317.3" cy="459.8" r="8.2"/>
		<circle fill="#808285" stroke="#BCBEC0" stroke-miterlimit="10" cx="393.4" cy="280.2" r="8.2"/>
		<circle fill="#808285" stroke="#BCBEC0" stroke-miterlimit="10" cx="400.1" cy="106.1" r="8.2"/>
		<circle fill="#808285" stroke="#BCBEC0" stroke-miterlimit="10" cx="314.1" cy="89.1" r="3.4"/>
		<circle fill="#808285" stroke="#BCBEC0" stroke-miterlimit="10" cx="293.2" cy="34.9" r="5.1"/>
		<circle fill="#808285" stroke="#BCBEC0" stroke-miterlimit="10" cx="206.6" cy="438.6" r="5.1"/>
		<circle fill="#808285" stroke="#BCBEC0" stroke-miterlimit="10" cx="276.2" cy="255.6" r="3.4"/>
		<circle fill="#808285" stroke="#BCBEC0" stroke-miterlimit="10" cx="420.3" cy="375" r="3.4"/>
		<circle fill="#808285" stroke="#BCBEC0" stroke-miterlimit="10" cx="339.9" cy="291.6" r="3.4"/>
		<circle fill="#808285" stroke="#BCBEC0" stroke-miterlimit="10" cx="257.7" cy="482.3" r="3.4"/>
		<circle fill="#808285" stroke="#BCBEC0" stroke-miterlimit="10" cx="114.5" cy="177.8" r="3.4"/>
		<circle fill="#808285" stroke="#BCBEC0" stroke-miterlimit="10" cx="218.4" cy="76.1" r="3.4"/>
		<circle fill="#808285" stroke="#BCBEC0" stroke-miterlimit="10" cx="229.5" cy="32.8" r="3.4"/>
		<circle fill="#808285" stroke="#BCBEC0" stroke-miterlimit="10" cx="45.8" cy="377.2" r="3.4"/>
		<circle fill="#808285" stroke="#BCBEC0" stroke-miterlimit="10" cx="173.1" cy="467.5" r="3.4"/>
		<circle fill="#808285" stroke="#BCBEC0" stroke-miterlimit="10" cx="183.5" cy="127.5" r="6"/>
		<circle fill="#808285" stroke="#BCBEC0" stroke-miterlimit="10" cx="51.2" cy="200.4" r="6"/>
		<circle fill="#808285" stroke="#BCBEC0" stroke-miterlimit="10" cx="300.2" cy="340" r="6"/>
		<circle fill="#808285" stroke="#BCBEC0" stroke-miterlimit="10" cx="344.4" cy="380.4" r="6"/>
		<circle fill="#808285" stroke="#BCBEC0" stroke-miterlimit="10" cx="219.6" cy="309.8" r="6"/>
		<circle fill="#808285" stroke="#BCBEC0" stroke-miterlimit="10" cx="83.2" cy="425.3" r="6"/>
		<circle fill="#808285" stroke="#BCBEC0" stroke-miterlimit="10" cx="446.5" cy="241.1" r="6"/>
		<circle fill="#808285" stroke="#BCBEC0" stroke-miterlimit="10" cx="455.2" cy="280.1" r="6"/>
		<circle fill="#808285" stroke="#BCBEC0" stroke-miterlimit="10" cx="102.4" cy="267" r="6"/>
		<circle fill="#808285" stroke="#BCBEC0" stroke-miterlimit="10" cx="21" cy="319.9" r="6"/>
		<circle fill="#808285" stroke="#BCBEC0" stroke-miterlimit="10" cx="186.5" cy="228.4" r="6"/>
		<circle fill="#808285" stroke="#BCBEC0" stroke-miterlimit="10" cx="124.3" cy="57.6" r="6"/>
		<circle fill="#808285" stroke="#BCBEC0" stroke-miterlimit="10" cx="160.6" cy="387.6" r="6"/>
	</g>
	
		<linearGradient id="SVGID_1_" gradientUnits="userSpaceOnUse" x1="123.4878" y1="299.4189" x2="492.2144" y2="299.4189" gradientTransform="matrix(0 1 -1 0 509.7144 -24.2139)">
		<stop  offset="0" style="stop-color:#EC008C"/>
		<stop  offset="0.5408" style="stop-color:#2B3990"/>
		<stop  offset="1" style="stop-color:#02C7FF"/>
	</linearGradient>
	<path fill="url(#SVGID_1_)" d="M250.3,468c2.7,0,5-2.2,5-5c0-0.5-0.1-1-0.2-1.5l49.1-20.2c1.2,2,3.3,3.4,5.8,3.4
		c3.7,0,6.7-3,6.7-6.7c0-1.5-0.5-2.9-1.3-4l18.1-18.1l0,0.1l0.3-0.4l0.2-0.2l0,0l31-38.8c1.1,0.8,2.5,1.3,4,1.3c3.7,0,6.7-3,6.7-6.7
		c0-2.6-1.5-4.9-3.7-6l14.7-32.4l0.2,0.2l0.1-0.8l0.1-0.2l-0.1-0.1l6.6-59.4c0,0,0,0,0.1,0c2.3,0,4.2-1.9,4.2-4.2s-1.9-4.2-4.2-4.2
		c-0.3,0-0.6,0-0.9,0.1l-14-43.4c0.7-0.5,1.2-1.3,1.2-2.3c0-1.5-1.3-2.8-2.8-2.8c-0.3,0-0.6,0.1-0.9,0.2l-21.5-32.3c0,0,0,0,0-0.1
		c0-2.8-1.7-5.2-4.2-6.2l-19.4-29.1c1.2-0.9,1.9-2.3,1.9-3.9c0-2.7-2.2-5-5-5c-1.8,0-3.4,1-4.3,2.4l-68.3-34.1
		c0.1-0.5,0.2-1,0.2-1.5c0-3.7-3-6.7-6.7-6.7c-3.2,0-5.9,2.3-6.6,5.3l-45-1.5V103l-0.4,0.1l-0.3,0v0.1l-37.8,9.1
		c-1-2.5-3.4-4.3-6.2-4.3c-3.7,0-6.7,3-6.7,6.7c0,0.7,0.1,1.3,0.3,1.9l-45.7,20c-0.8-1.6-2.5-2.6-4.4-2.6c-2.7,0-5,2.2-5,5
		c0,1.2,0.4,2.3,1.1,3.1l-31.6,30.1c-0.5-0.4-1.1-0.6-1.7-0.6c-1.5,0-2.8,1.3-2.8,2.8c0,0.9,0.4,1.6,1,2.1l-22.5,36
		c-0.7-0.4-1.5-0.6-2.3-0.6c-2.7,0-5,2.2-5,5c0,2.5,1.8,4.5,4.2,4.9l-6.4,73.8c-1.5,0.1-2.7,1.3-2.7,2.8c0,1.5,1.3,2.8,2.8,2.8
		c0,0,0.1,0,0.1,0L37,365.3c-1.1,0.4-1.8,1.4-1.8,2.6c0,1.5,1.3,2.8,2.8,2.8c0.6,0,1.2-0.2,1.6-0.5l27.5,33.3
		c-0.9,1.1-1.4,2.6-1.4,4.1c0,3.7,3,6.7,6.7,6.7c1.6,0,3.1-0.6,4.2-1.5l34.7,28.1c-1.1,1.2-1.8,2.8-1.8,4.5c0,3.7,3,6.7,6.7,6.7
		c2.9,0,5.4-1.9,6.3-4.5l41.8,14.9c0,0.2-0.1,0.4-0.1,0.6c0,1.5,1.3,2.8,2.8,2.8c1.4,0,2.6-1.1,2.8-2.4h75.5
		C245.6,466,247.7,468,250.3,468z M149.5,120.6c0.9,0.5,2,0.8,3.2,0.8c3.1,0,5.7-2.1,6.5-4.9l15.2,4.9l18,5.8
		c-0.1,0.4-0.1,0.7-0.1,1.1c0,0.3,0,0.6,0.1,0.9L136,143.6l9.3-15.8L149.5,120.6z M28,299.3c0.1-0.3,0.2-0.6,0.2-1
		c0-0.4-0.1-0.7-0.2-1l10.2-5.9L79,267.9c0.4,0.8,0.9,1.6,1.6,2.1l-21.8,42.1c-0.5-0.2-1-0.3-1.6-0.3c-1.4,0-2.7,0.7-3.5,1.8
		l-3.3-1.8L28,299.3z M374.5,218.4c0,0,0,0.1,0,0.1l-31.1,3c-0.2-0.9-0.9-1.6-1.7-2l3.1-13.7l3.6-15.7c1.8,0,3.5-0.8,4.6-2
		l22.5,28.2C374.9,216.8,374.5,217.6,374.5,218.4z M85.2,270.7c1.8-0.6,3.1-2.2,3.4-4.1l18.1,5.9l49,15.9c-0.1,0.3-0.1,0.7-0.1,1.1
		c0,1.2,0.4,2.3,1.1,3.1l-6.4,7l-48.1,52.2c-1.2-1.1-2.8-1.8-4.5-1.8c-0.1,0-0.1,0-0.2,0L93,321.5L85.2,270.7z M248.7,112.7
		c0.2,0,0.3,0,0.5,0c2.4,0,4.5-1.3,5.7-3.2l24.9,20.5L263,144.3l-28.6,24.3c-0.2-0.2-0.5-0.4-0.8-0.5l14.9-55.1L248.7,112.7z
		 M281.3,130.7l42.1,12.5c-0.1,0.3-0.1,0.7-0.1,1c0,1.3,0.5,2.5,1.3,3.4l-16.3,17.5c-0.8-0.7-1.9-1.1-3.1-1.1
		c-0.8,0-1.6,0.2-2.3,0.6l-15.2-23.9L281.3,130.7z M194.9,132.6c0.7,0.4,1.5,0.6,2.3,0.6c1.1,0,2.1-0.3,2.9-0.9l30.5,36.6
		c-0.5,0.5-0.7,1.2-0.7,1.9c0,0.1,0,0.1,0,0.2l-7.1,1.6L165,185.2c-0.3-1.1-1-2-1.9-2.6l2.3-3.5L194.9,132.6z M211.5,377.2
		C211.5,377.2,211.5,377.2,211.5,377.2l48.4-7l34.8-5c0.2,0.9,0.5,1.8,1,2.6l-58,43.1c-1.2-1.4-3-2.3-5-2.3c-1.2,0-2.3,0.3-3.2,0.8
		l-19-30.1C211.1,378.8,211.5,378.1,211.5,377.2z M160.4,294.4C160.4,294.4,160.4,294.4,160.4,294.4c1.8,0,3.4-0.9,4.2-2.3l16.6,8
		l34.6,16.8c-0.1,0.3-0.1,0.6-0.1,0.9c0,0.5,0.1,0.9,0.3,1.3L177.6,347l-13.8,10.1c-0.8-1-2-1.6-3.4-1.7V294.4z M117.3,197.7
		c0-0.4,0-0.7-0.1-1.1l38.3-8.5c0.6,1.9,2.2,3.3,4.1,3.5v92.9c-0.5,0.1-1,0.2-1.5,0.5l-42.9-82.6
		C116.5,201.2,117.3,199.5,117.3,197.7z M160.4,191.7c1.1,0,2.2-0.4,3-1.1l47.7,46.1c-1.3,0.9-2.1,2.4-2.1,4.1c0,1,0.3,1.9,0.8,2.7
		L197,255.1l-33.4,30.5c-0.9-0.7-2-1.1-3.2-1.1c0,0,0,0,0,0V191.7z M307.7,173.3l31.1,46.7c-0.3,0.3-0.6,0.6-0.7,1L296,210.6
		c0-0.3,0.1-0.5,0.1-0.8c0-2-1.2-3.8-3-4.6l10.9-31.4c0.4,0.1,0.8,0.2,1.3,0.2C306.1,174,307,173.7,307.7,173.3z M218.3,243.1
		l66.9,55.8c-0.6,0.8-0.9,1.8-0.9,2.9c0,0.2,0,0.5,0.1,0.7l-63.3,14.2c-0.4-1-1.3-1.7-2.4-1.8l-3.4-69.5
		C216.6,245.2,217.7,244.3,218.3,243.1z M221.1,318.8c0.1-0.3,0.2-0.6,0.2-1c0-0.1,0-0.2,0-0.2l63.3-14.2c0.6,2,2.5,3.5,4.8,3.5
		c0.2,0,0.4,0,0.6,0l10.1,50.7c-1.7,0.3-3.2,1.3-4.1,2.7l-40.8-22.5L221.1,318.8z M286.6,211.9c0.7,1.5,2.2,2.6,4,2.8l-1.6,82.2
		c-1.3,0.1-2.4,0.6-3.3,1.5l-67.1-56c0.2-0.5,0.3-1,0.3-1.6c0-0.8-0.2-1.6-0.5-2.3l56.1-21.9L286.6,211.9z M165,291.4
		c0.3-0.6,0.4-1.3,0.4-2c0-1.3-0.5-2.4-1.3-3.3l46.1-42.1c0.9,1,2.2,1.7,3.7,1.7c0.2,0,0.4,0,0.6,0l3.4,69.3
		c-0.7,0.1-1.4,0.6-1.8,1.2l-35.3-17.1L165,291.4z M216.4,319.7c0.3,0.3,0.7,0.6,1.2,0.7l-8.3,50.5l-0.6,3.4c0,0,0,0-0.1,0
		c-1.1,0-2,0.6-2.5,1.5l-41.4-14.4c0.1-0.4,0.2-0.8,0.2-1.3c0-1-0.3-1.8-0.7-2.6l31.4-22.9L216.4,319.7z M209.6,374.5l0.4-2.4
		l8.4-51.6c0,0,0,0,0.1,0c0.9,0,1.7-0.4,2.2-1.1l33.7,18.7l41.1,22.7c-0.5,1-0.8,2.1-0.8,3.3c0,0.1,0,0.2,0,0.4l-34.3,4.9l-49,7
		C211.1,375.5,210.4,374.8,209.6,374.5z M317.2,273.7c0,1.6,0.5,3,1.4,4.1l-25.7,20.6c-0.8-0.9-1.9-1.4-3.1-1.6l1.6-82.2
		c0.6,0,1.2-0.2,1.7-0.4l28.1,53.3C318.8,268.6,317.2,271,317.2,273.7z M286.7,207.3c-0.4,0.7-0.6,1.5-0.6,2.4c0,0.5,0.1,1,0.2,1.4
		l-12.2,4.8L218,237.8c-0.5-0.7-1.2-1.3-2-1.6l7-26.9l9.4-35.8c0.1,0,0.2,0,0.3,0c0.8,0,1.6-0.4,2.1-0.9l36.3,24.2L286.7,207.3z
		 M230,171.7c0.3,0.7,0.8,1.3,1.5,1.6l-4,15.4L215.2,236c-0.4-0.1-0.8-0.2-1.2-0.2c-0.8,0-1.5,0.2-2.1,0.5L164,190
		c0.8-0.9,1.3-2,1.3-3.3c0-0.2,0-0.5-0.1-0.7l59-12.9L230,171.7z M300.8,357.4l-10.2-50.8c2-0.6,3.5-2.4,3.6-4.5l60.9-1.6
		c0.2,0.6,0.5,1.1,1,1.5l-50.6,56.9c-1.2-0.9-2.6-1.5-4.2-1.5C301.2,357.4,301,357.4,300.8,357.4z M293.7,213.9
		c1-0.6,1.7-1.5,2.1-2.6l42.1,10.5c0,0.1,0,0.2,0,0.3c0,1.1,0.7,2.1,1.6,2.5l-13.3,42.7c-0.7-0.3-1.5-0.4-2.3-0.4
		c-0.7,0-1.4,0.1-2,0.3L293.7,213.9z M300.3,169.5c0.2,1.8,1.3,3.3,3,4l-3.3,9.6l-7.6,21.8c-0.4-0.1-0.8-0.2-1.3-0.2
		c-1.6,0-3,0.7-3.9,1.9l-15.3-10.2L235.1,172c0.1-0.3,0.2-0.6,0.3-0.9l44.9-1.1L300.3,169.5z M157.1,293.2c0.7,0.6,1.5,1.1,2.5,1.2
		v61c-2.3,0.2-4.2,2-4.5,4.3l-50.8-2.9c0,0,0,0,0,0c0-1.7-0.6-3.2-1.6-4.4l24.2-26.2L157.1,293.2z M104.2,357.5l50.8,2.9
		c0,1.9,1.2,3.6,2.8,4.4l-12.1,31.5l-2,5.3c-0.7-0.4-1.5-0.6-2.4-0.6c-1,0-1.9,0.3-2.7,0.8l-36.2-40.5
		C103.4,360.2,104,358.9,104.2,357.5z M144.4,401.9l2.6-6.7l11.6-30.1c0.4,0.1,0.9,0.2,1.4,0.2c2,0,3.8-1.2,4.6-3l41.4,14.4
		c0,0.2-0.1,0.4-0.1,0.5c0,0.3,0,0.5,0.1,0.8l-60,26.3C145.8,403.3,145.2,402.5,144.4,401.9z M355.5,298.3c-0.3,0.4-0.4,0.9-0.5,1.5
		l-60.8,1.6c-0.1-0.8-0.4-1.6-0.8-2.3l25.8-20.6c1.2,1.2,2.9,2,4.8,2c2.2,0,4.2-1.1,5.4-2.8l8.6,6.8L355.5,298.3z M340.9,219.4
		c-0.1,0-0.2,0-0.2,0c-0.4,0-0.8,0.1-1.2,0.3l-31.1-46.7c0.7-0.5,1.2-1.2,1.5-2l32.1,10.3c-0.3,0.7-0.4,1.5-0.4,2.3
		c0,3.5,2.7,6.3,6.1,6.7l-4.2,18.3L340.9,219.4z M302.3,165c-1.1,0.9-1.9,2.2-2,3.7l-20.1,0.5l-44.8,1.1c-0.1-0.4-0.2-0.7-0.4-1
		l28.4-24.2l16.9-14.4l6.5,10.1L302.3,165z M135.8,144.4l56.7-14.6c0.3,0.9,0.9,1.8,1.7,2.4L162.5,182l-0.1,0.2
		c-0.7-0.3-1.4-0.5-2.1-0.5c-0.9,0-1.7,0.2-2.4,0.6l-7.3-12.5L135.8,144.4z M238.6,418.6c0.5-1,0.8-2.1,0.8-3.2
		c0-1.4-0.4-2.7-1.2-3.8l58-43.1c0.8,1,1.9,1.7,3.2,2.1l-19.8,70c-0.5-0.2-1.1-0.3-1.6-0.3c-1.5,0-2.8,0.7-3.7,1.7l-25.8-16.8
		L238.6,418.6z M389.7,268.9c0.1,0.7,0.4,1.3,0.8,1.8L360,298.1c-0.5-0.7-1.3-1.1-2.2-1.1c-0.7,0-1.3,0.3-1.8,0.7l-17-13.4l-9.2-7.3
		c0.5-1,0.9-2.1,0.9-3.3c0-0.1,0-0.2,0-0.3l57.9-4.5L389.7,268.9z M342.2,180.4l-32.1-10.3c0.1-0.4,0.1-0.7,0.1-1.1
		c0-1.3-0.5-2.5-1.3-3.4l16.3-17.5c0.8,0.7,1.9,1.1,3.1,1.1c0.7,0,1.4-0.2,2-0.4l15.5,28.4C344.2,177.8,343,178.9,342.2,180.4z
		 M243.1,108.8c0.9,1.9,2.7,3.4,4.8,3.8l-0.4,1.5L233,168c-0.1,0-0.2,0-0.3,0c-0.5,0-1,0.2-1.5,0.4l-2.2-2.6l-28.3-33.9
		c0.9-0.9,1.5-2.2,1.5-3.6c0-0.6-0.1-1.1-0.3-1.6l1.6-0.7L243.1,108.8z M135.3,145.1l14.7,25.2l7.3,12.4c-1.2,0.9-2,2.3-2,3.9
		c0,0.2,0,0.4,0,0.7l-38.3,8.5c-0.4-1.4-1.2-2.6-2.3-3.4l0.6-1.4L135.3,145.1z M109.7,204.3c0.3,0,0.6,0.1,0.9,0.1
		c1.5,0,3-0.5,4.1-1.4l42.8,82.5c-0.8,0.6-1.3,1.3-1.7,2.2l-49.2-16l-18.1-5.9c-0.1-1.9-1.3-3.6-2.9-4.3L97.2,234L109.7,204.3z
		 M60.5,318.7c0.6-0.7,1-1.7,1-2.7c0-1.5-0.8-2.8-1.9-3.5l21.8-42.1c0.7,0.4,1.5,0.6,2.3,0.6c0.3,0,0.5,0,0.8-0.1l6.6,43l5.6,36.2
		c-1.2,0.2-2.4,0.7-3.3,1.4L60.5,318.7z M146.3,406.4c0-0.2,0-0.3,0-0.5c0-0.3,0-0.6-0.1-0.9l48.2-21.2l11.8-5.2
		c0.5,0.8,1.4,1.3,2.4,1.3c0.4,0,0.8-0.1,1.1-0.3l18.9,30.1c-1.4,1-2.4,2.5-2.7,4.3l-2.4-0.2L146.3,406.4z M235.4,421.5
		c1.1-0.5,2.1-1.3,2.8-2.2l10.2,6.7l25.5,16.7c-0.5,0.8-0.8,1.7-0.8,2.6c0,1,0.3,1.9,0.8,2.7l-19.5,12.2c-0.9-1.2-2.4-2-4-2
		c-0.5,0-0.9,0.1-1.4,0.2l-3.9-10.4L235.4,421.5z M309.3,431.3c-3.4,0.3-6,3.2-6,6.7c0,0.5,0.1,1,0.2,1.4l-20.7,4.6
		c-0.4-1.4-1.3-2.5-2.5-3.2l19.8-70.1c0.4,0.1,0.8,0.1,1.2,0.1c0.3,0,0.5,0,0.8-0.1l5,42L309.3,431.3z M367.7,364.5
		c-2.6,0.6-4.7,2.7-5.1,5.3l-54.5-5.7c0,0,0,0,0,0c0-1.8-0.7-3.5-1.9-4.7l50.7-57c0.3,0.1,0.6,0.2,1,0.2c0.2,0,0.4,0,0.5-0.1l3.9,26
		L367.7,364.5z M390.4,265.7c-0.5,0.7-0.8,1.5-0.8,2.4l-10.4,0.8l-48.7,3.7c-0.3-2.2-1.7-4-3.6-4.9l13.3-42.8c0.1,0,0.3,0,0.4,0
		c0.7,0,1.3-0.3,1.8-0.7l15.3,13.2L390.4,265.7z M134.6,144.5l-0.2,0.3l0.1,0l-19.8,45.6l-0.7,1.6c-0.9-0.6-2.1-0.9-3.2-1
		l-12.9-47.4c1.6-0.6,2.8-1.9,3.2-3.6l18.6,2.5L134.6,144.5z M97.2,143.8L110,191c-2.1,0.2-3.8,1.2-5,2.8L61.7,175
		c0.1-0.2,0.1-0.5,0.1-0.7c0-0.6-0.2-1.2-0.5-1.6l31.6-30.1c0.9,0.8,2,1.3,3.3,1.3C96.5,143.9,96.9,143.8,97.2,143.8z M104.2,199.7
		c0.7,2.2,2.5,3.9,4.7,4.5l-12.4,29.5l-11.6,27.5c-0.4-0.1-0.8-0.2-1.3-0.2c-0.9,0-1.7,0.2-2.4,0.6l-44.8-41.7
		c0.7-0.8,1.1-1.9,1.1-3.1c0-0.3,0-0.5-0.1-0.8l30.3-7.4L104.2,199.7z M40.4,366.5c-0.3-0.6-0.8-1-1.4-1.2L56.1,320
		c0.4,0.1,0.7,0.2,1.1,0.2c1,0,2-0.4,2.7-1L92.7,352c-1.2,1.2-1.9,2.9-1.9,4.7c0,0.3,0,0.6,0.1,0.9l-10.3,1.8L40.4,366.5z M95.2,363
		c0.7,0.3,1.5,0.4,2.3,0.4c1.7,0,3.2-0.6,4.4-1.7l36.1,40.4c-1,0.9-1.7,2.2-1.7,3.7c0,0.1,0,0.1,0,0.2l-57.4,1.4
		c0-2.6-1.5-4.9-3.8-6l3.6-7L95.2,363z M79,408.3l57.5-1.4c0.3,1.6,1.4,2.8,2.8,3.5l-18.9,29.7c-1.1-0.9-2.6-1.4-4.1-1.4
		c-1.7,0-3.2,0.6-4.4,1.6l-34.7-28C78.2,411.2,78.8,409.8,79,408.3z M144.3,409.9c0.9-0.7,1.6-1.7,1.9-2.8l28.9,2.8l50.9,5
		c0,0.1,0,0.3,0,0.4c0,1.3,0.4,2.5,1,3.5l-57.9,42.2c-0.5-0.5-1.2-0.9-2-0.9c-0.3,0-0.5,0-0.8,0.1l-0.3-0.6L144.3,409.9z
		 M169.5,461.7l57.9-42.2c1.2,1.6,3.1,2.6,5.3,2.6c0.7,0,1.3-0.1,2-0.3l9.7,26.1l3.9,10.7c-1.6,0.7-2.7,2.3-2.9,4.1h-75.5
		C169.8,462.3,169.7,462,169.5,461.7z M254.8,460.8C254.8,460.8,254.8,460.7,254.8,460.8l11-7l8.5-5.3c0.9,1,2.2,1.7,3.7,1.7
		c2.7,0,5-2.2,5-5c0-0.2,0-0.3,0-0.5l0.8-0.2l20-4.4c0,0.1,0.1,0.3,0.2,0.4L254.8,460.8z M314.9,433.3c-1.2-1.3-2.9-2.1-4.8-2.1
		l-2.2-18.6l-5-42c0.7-0.2,1.4-0.5,2-0.9l5.6,9l22.6,36.4L314.9,433.3z M333.6,414.5l-22.1-35.7l-5.9-9.5c1.3-1.1,2.2-2.6,2.4-4.4
		l54.4,5.7c0,0.1,0,0.3,0,0.4c0,1.9,0.8,3.7,2.1,4.9L333.6,414.5z M368.4,364.4l-5.4-35.9l-3.9-26.3c0.2-0.1,0.3-0.2,0.4-0.3
		l26.7,30l-14.9,32.7c-0.7-0.3-1.5-0.4-2.3-0.4C368.9,364.3,368.7,364.3,368.4,364.4z M386.4,331l-26.3-29.6c0.3-0.5,0.5-1,0.5-1.6
		c0-0.4-0.1-0.7-0.2-1l30.5-27.5c0.6,0.5,1.2,0.9,2,1L386.4,331z M392.2,264.3c-0.5,0.2-0.9,0.5-1.3,0.8l-47-40.7l-0.9-0.8
		c0.3-0.4,0.4-0.9,0.4-1.4l31.2-3c0.4,1.1,1.4,1.9,2.7,1.9c0.3,0,0.6-0.1,0.9-0.2L392.2,264.3z M372.6,211.4l-19.1-23.8
		c0.6-0.8,1.1-1.8,1.3-2.8L372.6,211.4z M346.6,176.9l-13.7-25.2l16.8,25.1c-0.4-0.1-0.9-0.1-1.4-0.1
		C347.6,176.7,347.1,176.8,346.6,176.9z M323.7,142.3C323.7,142.4,323.6,142.4,323.7,142.3l-43-12.6l-0.2-0.3l-0.1,0.1l-25.2-20.7
		c0.1-0.2,0.2-0.4,0.2-0.5L323.7,142.3z M242.5,105.4c0,0.2,0,0.4,0,0.6c0,0.7,0.1,1.4,0.3,2.1l-41.2,17.9c-0.8-1.5-2.3-2.5-4-2.6
		v-19.4L242.5,105.4z M196.8,103.9v19.4c-1.9,0.1-3.5,1.4-4.2,3.1l-17.1-5.5l-16.1-5.2c0.1-0.3,0.1-0.7,0.1-1.1
		c0-0.6-0.1-1.2-0.2-1.7L196.8,103.9z M146.5,117.3c0.5,1.2,1.3,2.2,2.3,2.9l-4.7,7.9l-9,15.3l-0.1-0.1l-0.2,0.4l-14.6-2l-19.1-2.6
		c0-0.1,0-0.2,0-0.3c0-0.6-0.1-1.1-0.3-1.6L146.5,117.3z M57.9,176.9c0.3,0.2,0.7,0.2,1.1,0.2c1,0,1.9-0.5,2.4-1.3l29.4,12.8l13.8,6
		c-0.5,0.9-0.8,2-0.8,3.2c0,0.4,0,0.9,0.1,1.3l-36.4,8.9l-30.4,7.4c-0.3-1-1-1.8-1.8-2.4L57.9,176.9z M35.8,220.5l44.7,41.6
		c-1.2,0.9-1.9,2.3-1.9,3.9c0,0.4,0.1,0.8,0.1,1.2l-51.2,29.5c-0.4-0.5-0.9-0.9-1.6-1l6.4-73.8c0,0,0,0,0,0
		C33.8,221.8,34.9,221.3,35.8,220.5z M26.3,300.9c0.5-0.2,1-0.5,1.4-1l25.8,14.3c-0.2,0.5-0.4,1.1-0.4,1.7c0,1.7,1,3.1,2.4,3.8
		l-10.1,26.6l-7.1,18.8c-0.1,0-0.2,0-0.3,0c-0.1,0-0.1,0-0.2,0L26.3,300.9z M40.1,369.6c0.4-0.5,0.6-1.1,0.6-1.7
		c0-0.2,0-0.4-0.1-0.6l40.1-7.1l10.3-1.8c0.5,1.9,1.8,3.4,3.4,4.3l-16.3,31.5l-3.6,7c-0.7-0.2-1.4-0.4-2.2-0.4c-1.9,0-3.6,0.8-4.8,2
		L40.1,369.6z M122.8,446.8c0.1-0.5,0.2-0.9,0.2-1.4c0-1.9-0.8-3.5-2-4.8l19-29.9c0.4,0.1,0.9,0.2,1.4,0.2c0.8,0,1.6-0.2,2.2-0.5
		l20.9,47.8l1.1,2.5c-0.4,0.3-0.8,0.6-1,1.1L122.8,446.8z"/>
</g>
</svg>
