<?xml version="1.0" encoding="utf-8"?>
<!-- Generator: Adobe Illustrator 16.0.0, SVG Export Plug-In . SVG Version: 6.00 Build 0)  -->
<!DOCTYPE svg PUBLIC "-//W3C//DTD SVG 1.1//EN" "http://www.w3.org/Graphics/SVG/1.1/DTD/svg11.dtd">
<svg version="1.1" id="Layer_1" xmlns="http://www.w3.org/2000/svg" xmlns:xlink="http://www.w3.org/1999/xlink" x="0px" y="0px"
	 width="100px" height="100px" viewBox="0 0 100 100" enable-background="new 0 0 100 100" xml:space="preserve">
<g>
	<g>
		<defs>
			<rect id="SVGID_1_" x="14" y="21.2" width="72" height="46.2"/>
		</defs>
		<clipPath id="SVGID_2_">
			<use xlink:href="#SVGID_1_"  overflow="visible"/>
		</clipPath>
		<path clip-path="url(#SVGID_2_)" fill="#0073C6" d="M40.7,53.6c-3.3,0-6,3.1-6,6.9c0,3.8,2.7,6.9,6,6.9c3.3,0,6-3.1,6-6.9
			C46.7,56.7,44,53.6,40.7,53.6L40.7,53.6z M40.7,63.9c-1.7,0-3-1.5-3-3.4c0-1.9,1.3-3.4,3-3.4c1.7,0,3,1.5,3,3.4
			C43.7,62.4,42.3,63.9,40.7,63.9L40.7,63.9z M86,48.5v7.3c0,1.8-1.3,3.3-2.9,3.3H80c-0.6-4.4-3.9-7.8-7.9-7.8c-4,0-7.3,3.4-7.9,7.8
			H48.5c-0.6-4.4-3.9-7.8-7.9-7.8c-4,0-7.3,3.4-7.9,7.8h-3.9c-1.6,0-2.9-1.5-2.9-3.3v-7.3H86z M72.1,53.6c-3.3,0-6,3.1-6,6.9
			c0,3.8,2.7,6.9,6,6.9c3.3,0,6-3.1,6-6.9C78.1,56.7,75.4,53.6,72.1,53.6L72.1,53.6z M72.1,63.9c-1.7,0-3-1.5-3-3.4
			c0-1.9,1.3-3.4,3-3.4c1.7,0,3,1.5,3,3.4C75.1,62.4,73.8,63.9,72.1,63.9L72.1,63.9z M84.9,41.1L73.5,28.3c-0.7-0.8-1.7-1.3-2.7-1.3
			H65v-2.5c0-1.8-1.3-3.3-2.9-3.3H28.9c-1.6,0-2.9,1.5-2.9,3.3V25l-11.8,1.6l20.8,3.1L14,32.1l21,3.4l-21,2.1l12,2.6l0,6.5h60v-2.4
			C86,43.1,85.6,42,84.9,41.1L84.9,41.1z M79.9,41.6h-11c-0.3,0-0.5-0.2-0.5-0.5v-9.7c0-0.3,0.2-0.5,0.5-0.5H71
			c0.1,0,0.2,0.1,0.3,0.1l8.9,9.7C80.5,41,80.3,41.6,79.9,41.6L79.9,41.6z M79.9,41.6"/>
	</g>
</g>
</svg>
